<svg width="106" height="104" viewBox="0 0 106 104" fill="none" xmlns="http://www.w3.org/2000/svg">
<path d="M98.9443 75.7984C98.5699 76.0626 98.1514 76.2167 97.7108 76.2608C97.2483 76.3048 96.8077 76.1947 96.3672 75.9746C95.9266 75.7544 95.5962 75.4462 95.3539 75.0719C95.1116 74.6977 94.9795 74.2574 94.9795 73.795C94.9795 73.3327 95.0896 72.8704 95.3099 72.4081C95.5081 72.0118 95.7725 71.6816 96.0588 71.4394C96.3672 71.1972 96.6976 71.0211 97.072 70.9551L97.3804 72.0999C96.8958 72.2099 96.5434 72.4741 96.3452 72.8704C96.235 73.1126 96.1689 73.3547 96.191 73.5749C96.213 73.8171 96.2791 74.0372 96.4112 74.2354C96.5434 74.4335 96.7416 74.5876 96.9839 74.7197C97.2262 74.8518 97.4685 74.8958 97.7108 74.8958C97.9531 74.8958 98.1734 74.8298 98.3716 74.6757C98.5699 74.5436 98.7241 74.3674 98.8562 74.1253C99.0545 73.729 99.0545 73.2887 98.8562 72.8264L99.9576 72.3861C100.112 72.7383 100.178 73.1126 100.178 73.4868C100.156 73.8831 100.046 74.2794 99.8474 74.6757C99.6272 75.16 99.3188 75.5122 98.9443 75.7984Z" fill="#332F81"/>
<path d="M100.553 65.9798L100.927 64.813L102.865 65.4514C102.976 65.7816 103.02 66.1339 102.998 66.5081C102.976 66.8824 102.931 67.2567 102.799 67.5869C102.645 68.0712 102.381 68.4895 102.05 68.7977C101.72 69.1279 101.323 69.3261 100.883 69.4362C100.442 69.5462 99.9798 69.5022 99.5173 69.3481C99.0547 69.194 98.6803 68.9518 98.3719 68.5996C98.0855 68.2473 97.8873 67.8511 97.8212 67.3887C97.7551 66.9264 97.7772 66.4421 97.9534 65.9578C98.0855 65.5174 98.3058 65.1652 98.5481 64.857C98.8124 64.5488 99.1208 64.3286 99.4732 64.1965L99.9578 65.2753C99.5173 65.4734 99.2089 65.8036 99.0767 66.2439C98.9446 66.6402 98.9666 67.0145 99.1208 67.3227C99.275 67.6529 99.5613 67.8731 99.9798 68.0052C100.244 68.0932 100.486 68.1152 100.729 68.0712C100.971 68.0272 101.169 67.9171 101.346 67.763C101.522 67.6089 101.654 67.3887 101.742 67.1246C101.83 66.8824 101.852 66.6182 101.83 66.354L100.553 65.9798Z" fill="#332F81"/>
<path d="M98.79 63.3378L99.1204 61.9949L103.9 63.1617L103.57 64.5046L98.79 63.3378Z" fill="#332F81"/>
<path d="M103.746 58.5166L103.416 60.564L104.297 61.0924L104.077 62.5014L99.5613 59.5734L99.7816 58.2304L104.98 56.8655L104.76 58.2965L103.746 58.5166ZM102.667 58.7588L101.015 59.1331L102.469 60.0137L102.667 58.7588Z" fill="#332F81"/>
<path d="M4.20713 57.1076L4.00888 55.6106L5.11023 55.4785L5.68292 59.8375L4.58158 59.9696L4.38334 58.4726L0.616751 58.9569L0.440536 57.592L4.20713 57.1076Z" fill="#332F81"/>
<path d="M2.68695 63.0295L2.51074 62.303L1.23318 62.5892L0.924805 61.2463L5.70463 60.1455L6.21125 62.325C6.32138 62.7653 6.32138 63.1396 6.2553 63.4918C6.18922 63.8441 6.03503 64.1303 5.81476 64.3724C5.5945 64.6146 5.28612 64.7687 4.93369 64.8568C4.58126 64.9448 4.27289 64.9228 3.96451 64.8348C3.67816 64.7247 3.41384 64.5486 3.19357 64.2844L1.93804 65.6713L1.60764 64.2183L2.68695 63.0295ZM5.10991 63.1616C5.19801 62.9855 5.22004 62.7653 5.15396 62.5011L4.97774 61.7526L3.56803 62.0828L3.74424 62.8314C3.81032 63.1176 3.92046 63.2937 4.07464 63.4258C4.22883 63.5359 4.42707 63.5799 4.64734 63.5138C4.86761 63.4478 5.0218 63.3157 5.10991 63.1616Z" fill="#332F81"/>
<path d="M2.95117 66.9924C3.19347 66.4861 3.65603 66.1118 4.33887 65.8697L6.91601 64.967L7.37857 66.2659L4.84548 67.1465C4.09657 67.4107 3.83225 67.829 4.05252 68.4234C4.25076 68.9958 4.73535 69.172 5.46223 68.9078L7.99532 68.0272L8.45789 69.3261L5.85872 70.2287C5.17589 70.4709 4.58116 70.4708 4.05252 70.2067C3.5459 69.9645 3.17144 69.4802 2.92915 68.7977C2.70888 68.1152 2.70888 67.5208 2.95117 66.9924Z" fill="#332F81"/>
<path d="M10.705 74.2355L6.27764 76.3709L5.77103 75.3362L7.18075 72.2541L4.8459 73.3769L4.25117 72.144L8.67857 70.0085L9.18519 71.0433L7.77547 74.1254L10.1323 72.9806L10.705 74.2355Z" fill="#332F81"/>
<path d="M10.8152 78.8807L11.476 79.9154L9.75789 80.9942C9.42749 80.8621 9.14114 80.6639 8.85479 80.4218C8.56844 80.1796 8.32615 79.8934 8.12791 79.5852C7.86358 79.1449 7.70939 78.7046 7.66534 78.2423C7.62129 77.7799 7.70939 77.3396 7.92966 76.9434C8.1279 76.5471 8.43628 76.2169 8.85479 75.9527C9.2733 75.6885 9.71384 75.5564 10.1544 75.5564C10.6169 75.5564 11.0354 75.6665 11.4319 75.9086C11.8284 76.1508 12.1808 76.481 12.4672 76.9213C12.7095 77.3176 12.8637 77.6919 12.9298 78.0881C12.9958 78.4844 12.9738 78.8587 12.8416 79.2109L11.6963 78.8807C11.8284 78.3964 11.7623 77.9781 11.52 77.5818C11.2998 77.2296 11.0134 77.0094 10.661 76.9213C10.3086 76.8333 9.95613 76.9213 9.58168 77.1415C9.36141 77.2956 9.18519 77.4717 9.05303 77.6699C8.9429 77.89 8.87682 78.1102 8.89884 78.3523C8.92087 78.5945 8.98695 78.8367 9.14114 79.0568C9.2733 79.277 9.47154 79.4751 9.66978 79.6072L10.8152 78.8807Z" fill="#332F81"/>
<path d="M14.9562 82.3151L13.9871 81.1703L14.8241 80.4658L17.6655 83.8121L16.8285 84.5166L15.8593 83.3718L12.9518 85.8375L12.0487 84.7808L14.9562 82.3151Z" fill="#332F81"/>
<path d="M17.269 88.9635L15.7932 87.5105L14.8461 87.9288L13.8329 86.9381L18.8109 84.9347L19.7801 85.8813L17.9078 90.9228L16.8726 89.9101L17.269 88.9635ZM17.6876 87.9508L18.3263 86.3877L16.7845 87.0702L17.6876 87.9508ZM20.0224 85.5731L19.9563 84.7806L19.1634 84.7366L18.5246 84.1201L19.9123 83.988L20.7273 84.7806L20.6391 86.1896L20.0224 85.5731Z" fill="#332F81"/>
<path d="M22.0927 94.2032L23.6566 92.1337L21.3658 93.0364L20.8812 92.6621L21.1235 90.2845L19.5816 92.2878L18.5684 91.5173L21.542 87.6206L22.4451 88.3031L22.0927 91.6054L25.1544 90.3725L26.0575 91.055L23.0839 94.9737L22.0927 94.2032Z" fill="#332F81"/>
<path d="M28.8107 93.9391L27.489 93.2126L28.0177 92.2439L31.8724 94.3353L31.3437 95.304L30.0221 94.5775L28.1939 97.9238L26.9824 97.2634L28.8107 93.9391Z" fill="#332F81"/>
<path d="M36.4104 96.2285L34.5161 100.764L33.2385 100.235L33.9874 98.4741L32.2473 97.7476L31.4984 99.5088L30.2208 98.9805L32.1151 94.4453L33.3927 94.9737L32.6878 96.6689L34.428 97.3954L35.1328 95.7002L36.4104 96.2285Z" fill="#332F81"/>
<path d="M36.8732 101.314C36.5428 100.984 36.3005 100.61 36.1904 100.169C36.0803 99.7291 36.0803 99.2888 36.2124 98.8045C36.3446 98.3422 36.5869 97.9459 36.9173 97.6377C37.2477 97.3295 37.6442 97.1313 38.1067 97.0212C38.5693 96.9332 39.0539 96.9552 39.5385 97.0873C40.0451 97.2194 40.4636 97.4615 40.794 97.7918C41.1244 98.122 41.3667 98.4963 41.4768 98.9366C41.587 99.3769 41.587 99.8172 41.4548 100.302C41.3226 100.764 41.0803 101.16 40.7499 101.468C40.4195 101.777 40.0231 101.975 39.5605 102.085C39.0979 102.173 38.6133 102.151 38.1288 102.019C37.6442 101.865 37.2256 101.644 36.8732 101.314ZM39.142 100.918C39.3623 100.852 39.5605 100.742 39.7367 100.566C39.9129 100.39 40.0231 100.169 40.1112 99.9052C40.1772 99.641 40.1993 99.3989 40.1332 99.1567C40.0891 98.9145 39.979 98.7164 39.8028 98.5403C39.6486 98.3642 39.4504 98.2541 39.2081 98.188C38.9658 98.122 38.7455 98.122 38.5032 98.166C38.2829 98.2321 38.0847 98.3422 37.9085 98.5183C37.7323 98.6944 37.6221 98.9145 37.534 99.1787C37.4679 99.4429 37.4459 99.6851 37.512 99.9272C37.5561 100.169 37.6662 100.368 37.8424 100.544C37.9966 100.72 38.1948 100.83 38.4371 100.896C38.6794 100.984 38.9217 100.984 39.142 100.918ZM40.1993 96.9772L39.7587 96.2947L39.0318 96.647L38.1728 96.4048L39.3402 95.6343L40.4416 95.9425L41.0143 97.2194L40.1993 96.9772Z" fill="#332F81"/>
<path d="M47.2256 98.7605L46.4326 103.604L45.3092 103.428L43.5911 100.5L43.1726 103.075L41.829 102.855L42.6219 98.012L43.7453 98.1881L45.4634 101.116L45.8819 98.5403L47.2256 98.7605Z" fill="#332F81"/>
<path d="M51.2127 101.38L52.4462 101.446L52.3361 103.472C52.0497 103.648 51.7193 103.802 51.3449 103.89C50.9704 103.978 50.618 104.022 50.2435 104C49.7369 103.978 49.2743 103.846 48.8778 103.604C48.4814 103.362 48.173 103.053 47.9527 102.657C47.7324 102.261 47.6443 101.82 47.6664 101.314C47.6884 100.83 47.8206 100.389 48.0849 100.015C48.3272 99.641 48.6796 99.3548 49.0981 99.1566C49.5166 98.9585 50.0012 98.8704 50.5299 98.8925C50.9924 98.9145 51.3889 99.0025 51.7413 99.1787C52.0938 99.3548 52.3801 99.597 52.6224 99.8831L51.6973 100.632C51.3889 100.257 50.9924 100.059 50.5299 100.037C50.1113 100.015 49.7589 100.125 49.4946 100.367C49.2303 100.61 49.0761 100.94 49.0541 101.358C49.032 101.622 49.0761 101.865 49.1862 102.085C49.2964 102.305 49.4505 102.481 49.6488 102.613C49.847 102.745 50.0893 102.811 50.3536 102.833C50.618 102.855 50.8823 102.811 51.1026 102.701L51.2127 101.38Z" fill="#332F81"/>
<path d="M56.3662 100.037L54.8684 100.169L54.7803 99.0686L59.1636 98.6724L59.2517 99.7731L57.7539 99.9052L58.0843 103.692L56.6966 103.824L56.3662 100.037Z" fill="#332F81"/>
<path d="M59.4502 98.5402L60.8159 98.3201L61.5868 103.163L60.2211 103.384L59.4502 98.5402Z" fill="#332F81"/>
<path d="M66.2788 97.1753L67.4462 101.953L66.3449 102.217L63.6135 100.191L64.2303 102.723L62.9087 103.053L61.7412 98.2761L62.8426 98.0119L65.5739 100.037L64.9572 97.5055L66.2788 97.1753Z" fill="#332F81"/>
<path d="M72.5344 98.2101L73.1952 99.8392L71.9176 100.368L71.2348 98.7165L68.3273 96.5369L69.6929 95.9866L71.4991 97.3515L71.8516 95.106L73.1071 94.5996L72.5344 98.2101Z" fill="#332F81"/>
<path d="M76.3014 93.9612L75.0018 94.7097L74.4512 93.763L78.2618 91.5615L78.8125 92.5082L77.5129 93.2567L79.4072 96.559L78.1957 97.2415L76.3014 93.9612Z" fill="#332F81"/>
<path d="M84.01 92.2881L84.6267 93.1687L81.4108 95.4362L78.5693 91.4295L81.7192 89.2059L82.3359 90.0865L80.3095 91.5175L80.794 92.2L82.5782 90.9451L83.1729 91.7817L81.3888 93.0366L81.9174 93.7631L84.01 92.2881ZM80.4196 89.6682H79.6927L79.4504 90.3507L78.7235 90.8571L78.9878 89.6242L79.913 88.9637L81.1465 89.1399L80.4196 89.6682ZM80.3755 87.7529L81.4328 87.0044L81.0143 88.3693L80.2654 88.8977L80.3755 87.7529Z" fill="#332F81"/>
<path d="M91.478 87.7308C91.5 87.995 91.4559 88.2371 91.3678 88.4793C91.2797 88.7215 91.1255 88.9416 90.9273 89.1177C90.7291 89.3159 90.5308 89.448 90.3326 89.558C90.1343 89.6681 89.892 89.7342 89.6057 89.7562C89.3414 89.8002 88.9889 89.8002 88.5925 89.7782C88.24 90.0204 87.8656 90.1745 87.4471 90.2405C87.0506 90.3066 86.6541 90.2625 86.2796 90.1304C85.9052 89.9983 85.5748 89.7782 85.2664 89.47C84.936 89.1177 84.7157 88.7215 84.6056 88.2812C84.5175 87.8409 84.5395 87.4006 84.6717 86.9602C84.8259 86.5199 85.0902 86.1237 85.4646 85.7494C85.8391 85.3972 86.2576 85.155 86.6981 85.0229C87.1387 84.8908 87.6013 84.8908 88.0418 85.0009C88.4823 85.111 88.8568 85.3531 89.2092 85.7054C89.5837 86.1016 89.826 86.564 89.892 87.0703C89.9581 87.5767 89.892 88.083 89.6497 88.5674C89.7819 88.5674 89.9141 88.5674 90.0022 88.5233C90.0903 88.5013 90.1784 88.4353 90.2665 88.3692C90.4647 88.1711 90.5749 87.9289 90.5749 87.5987L91.478 87.7308ZM86.9184 88.9416C87.1607 89.0077 87.381 89.0297 87.6013 88.9636C87.8215 88.9196 88.0198 88.7875 88.218 88.6334C88.3942 88.4573 88.5264 88.2591 88.5925 88.039C88.6585 87.8188 88.6585 87.5767 88.5925 87.3565C88.5264 87.1144 88.3942 86.9162 88.218 86.6961C88.0418 86.4759 87.8215 86.3658 87.5792 86.2778C87.3369 86.2117 87.1167 86.1897 86.8964 86.2558C86.6761 86.2998 86.4779 86.4319 86.2796 86.586C86.1034 86.7621 85.9713 86.9602 85.9052 87.1804C85.8391 87.4006 85.8391 87.6427 85.9052 87.8629C85.9713 88.083 86.1034 88.3032 86.2796 88.5233C86.4779 88.7215 86.6761 88.8536 86.9184 88.9416Z" fill="#332F81"/>
<path d="M91.5876 85.9696C91.0149 86.0357 90.4643 85.8155 89.8916 85.3532L87.799 83.614L88.6801 82.5573L90.7506 84.2744C91.3453 84.7808 91.8519 84.7808 92.2484 84.3185C92.6449 83.8341 92.5348 83.3498 91.94 82.8655L89.8695 81.1483L90.7506 80.0916L92.8432 81.8308C93.3938 82.2931 93.7022 82.8214 93.7463 83.3718C93.7903 83.9442 93.5921 84.4946 93.1075 85.067C92.6669 85.5954 92.1603 85.9036 91.5876 85.9696Z" fill="#332F81"/>
<path d="M92.5786 76.6569L91.8957 76.9211L91.9177 77.6476L91.4332 78.3961L91.2129 77.1633L91.8296 76.2166L93.0411 75.9084L92.5786 76.6569ZM91.8517 74.8957L92.5565 73.7949L92.6667 75.2259L92.16 75.9964L91.8517 74.8957ZM95.7504 81.104C95.3319 81.3241 94.9134 81.4342 94.4508 81.4122C93.9883 81.3902 93.5698 81.2581 93.1513 80.9939C92.7548 80.7297 92.4464 80.3995 92.2481 79.9812C92.0499 79.5629 91.9838 79.1446 92.0279 78.6603C92.0719 78.198 92.2261 77.7357 92.5125 77.3174C92.7988 76.8771 93.1513 76.5468 93.5477 76.3267C93.9662 76.1065 94.3848 75.9964 94.8473 76.0185C95.3099 76.0405 95.7284 76.1726 96.1469 76.4368C96.5434 76.7009 96.8518 77.0312 97.05 77.4494C97.2482 77.8677 97.3143 78.286 97.2703 78.7704C97.2262 79.2327 97.072 79.695 96.7857 80.1133C96.4993 80.5536 96.1469 80.8838 95.7504 81.104ZM96.0368 78.8364C96.0588 78.5942 95.9927 78.3741 95.8826 78.176C95.7724 77.9558 95.5962 77.7797 95.3539 77.6256C95.1337 77.4715 94.8914 77.3834 94.6491 77.3614C94.4068 77.3394 94.1865 77.3834 93.9662 77.4935C93.768 77.6036 93.5918 77.7577 93.4596 77.9558C93.3275 78.1539 93.2614 78.3741 93.2394 78.6163C93.2173 78.8584 93.2834 79.0786 93.3935 79.2767C93.5037 79.4969 93.6799 79.673 93.9222 79.8271C94.1425 79.9812 94.3848 80.0693 94.6271 80.0913C94.8693 80.1133 95.0896 80.0693 95.3099 79.9592C95.5081 79.8491 95.6843 79.695 95.8165 79.4969C95.9707 79.2767 96.0368 79.0566 96.0368 78.8364Z" fill="#332F81"/>
<path d="M91.8737 51.2956C91.8737 72.9365 74.3183 90.5047 52.6439 90.5047C30.9915 90.5047 13.4141 72.9586 13.4141 51.2956C13.4141 29.6546 30.9695 12.0864 52.6439 12.0864C74.2963 12.0864 91.8737 29.6546 91.8737 51.2956Z" fill="#F9AE1B"/>
<path d="M75.5741 31.0194C74.3406 31.0194 73.0851 30.5571 72.1599 29.6105C70.2656 27.7171 70.2656 24.657 72.1599 22.7637C73.0851 21.8391 74.2965 21.3547 75.5741 21.3547C76.8737 21.3547 78.0852 21.8611 78.9883 22.7637C80.8826 24.657 80.8826 27.7171 78.9883 29.6105C78.0631 30.5351 76.8076 31.0194 75.5741 31.0194ZM75.5741 22.1693C74.5168 22.1693 73.5036 22.5876 72.7547 23.3361C71.1908 24.8992 71.1908 27.4309 72.7547 28.994C74.3186 30.5571 76.8517 30.5571 78.4156 28.994C79.9795 27.4309 79.9795 24.8992 78.4156 23.3361C77.6446 22.5876 76.6314 22.1693 75.5741 22.1693Z" fill="#332F81"/>
<path d="M29.7145 81.2582C28.4149 81.2582 27.2034 80.7518 26.3003 79.8492C25.3752 78.9246 24.8906 77.7137 24.8906 76.4368C24.8906 75.16 25.3972 73.9271 26.3003 73.0245C28.1947 71.1312 31.2564 71.1312 33.1507 73.0245C35.045 74.9178 35.045 77.9779 33.1507 79.8712C32.2256 80.7518 31.0141 81.2582 29.7145 81.2582ZM29.7145 72.4301C28.7013 72.4301 27.666 72.8263 26.8951 73.5969C26.1462 74.3454 25.7276 75.3581 25.7276 76.4148C25.7276 77.4716 26.1462 78.4843 26.8951 79.2328C27.644 79.9813 28.6572 80.3996 29.7145 80.3996C30.7718 80.3996 31.785 79.9813 32.5339 79.2328C34.0978 77.6697 34.0978 75.1379 32.5339 73.5749C31.763 72.8263 30.7498 72.4301 29.7145 72.4301Z" fill="#332F81"/>
<path d="M52.6217 85.6834C50.3529 85.6834 48.0841 85.4633 45.8594 85.023C45.6392 84.9789 45.485 84.7588 45.529 84.5166C45.5731 84.2965 45.7933 84.1423 46.0356 84.1864C48.2163 84.6267 50.419 84.8468 52.6437 84.8468H52.6657C71.1683 84.8468 86.2346 69.7884 86.2346 51.2956C86.2346 43.5462 83.5253 35.973 78.5913 29.9848C78.4371 29.8087 78.4592 29.5445 78.6574 29.3904C78.8336 29.2363 79.0979 29.2583 79.2521 29.4565C84.2963 35.5767 87.0716 43.3481 87.0716 51.2956C87.0496 70.2507 71.6088 85.6834 52.6217 85.6834C52.6437 85.6834 52.6437 85.6834 52.6217 85.6834Z" fill="#332F81"/>
<path d="M26.3882 73.2887C26.256 73.2887 26.1459 73.2447 26.0577 73.1346C21.0136 67.0144 18.2382 59.243 18.2382 51.2955C18.2382 32.3404 33.679 16.9077 52.6441 16.9077H52.6662C54.957 16.9077 57.2478 17.1279 59.4945 17.5902C59.7148 17.6342 59.869 17.8544 59.8249 18.0965C59.7808 18.3167 59.5606 18.4708 59.3183 18.4268C57.1156 17.9865 54.8689 17.7663 52.6441 17.7663C34.1416 17.7443 19.0752 32.8027 19.0752 51.2955C19.0752 59.0449 21.7845 66.6181 26.7186 72.6063C26.8727 72.7824 26.8507 73.0466 26.6525 73.2007C26.5864 73.2447 26.4763 73.2887 26.3882 73.2887Z" fill="#332F81"/>
<path d="M65.376 20.9804C65.2879 20.9804 65.2218 20.9804 65.1337 20.9584C65.0676 20.9364 64.9795 20.9144 64.9134 20.8923C64.8473 20.8703 64.7812 20.8263 64.7152 20.7823C64.6491 20.7382 64.583 20.6942 64.539 20.6282C64.3187 20.408 64.1865 20.0998 64.1865 19.7916C64.1865 19.4834 64.3187 19.1752 64.539 18.955C64.8253 18.6688 65.2218 18.5587 65.6183 18.6248C65.6843 18.6468 65.7725 18.6688 65.8385 18.6908C65.9046 18.7128 65.9707 18.7569 66.0368 18.8009C66.1029 18.8449 66.1689 18.889 66.213 18.955C66.257 18.999 66.3231 19.0651 66.3672 19.1311C66.4112 19.1972 66.4553 19.2632 66.4773 19.3293C66.4993 19.3953 66.5214 19.4834 66.5434 19.5494C66.5654 19.6155 66.5654 19.7035 66.5654 19.7696C66.5654 20.0778 66.4333 20.386 66.213 20.6061C66.1469 20.6722 66.1029 20.7162 66.0368 20.7603C65.9707 20.8043 65.9046 20.8483 65.8385 20.8703C65.7725 20.8923 65.6843 20.9144 65.6183 20.9364C65.5302 20.9584 65.4421 20.9804 65.376 20.9804Z" fill="#332F81"/>
<path d="M39.9787 84.0102C39.6703 84.0102 39.362 83.8781 39.1417 83.6579C38.9214 83.4378 38.7893 83.1296 38.7893 82.8214C38.7893 82.7553 38.7893 82.6672 38.8113 82.6012C38.8333 82.5352 38.8554 82.4471 38.8774 82.381C38.8994 82.315 38.9435 82.249 38.9875 82.1829C39.0316 82.1169 39.0756 82.0508 39.1417 82.0068C39.362 81.7866 39.6703 81.6545 39.9787 81.6545C40.2871 81.6545 40.5955 81.7866 40.8157 82.0068C40.8598 82.0508 40.9259 82.1169 40.9699 82.1829C41.014 82.249 41.058 82.315 41.0801 82.381C41.1021 82.4471 41.1241 82.5352 41.1461 82.6012C41.1682 82.6672 41.1682 82.7553 41.1682 82.8214C41.1682 83.1296 41.036 83.4378 40.8157 83.6579C40.7497 83.724 40.7056 83.768 40.6395 83.812C40.5734 83.8561 40.5074 83.9001 40.4413 83.9221C40.3752 83.9441 40.2871 83.9661 40.221 83.9882C40.1329 84.0102 40.0668 84.0102 39.9787 84.0102Z" fill="#332F81"/>
<path d="M78.8786 26.198C78.8786 28.0253 77.4028 29.5003 75.5745 29.5003C73.7463 29.5003 72.2705 28.0253 72.2705 26.198C72.2705 24.3708 73.7463 22.8958 75.5745 22.8958C77.4028 22.8958 78.8786 24.3708 78.8786 26.198Z" fill="white"/>
<path d="M33.0182 76.4148C33.0182 78.2421 31.5424 79.7171 29.7142 79.7171C27.886 79.7171 26.4102 78.2421 26.4102 76.4148C26.4102 74.5876 27.886 73.1125 29.7142 73.1125C31.5424 73.1125 33.0182 74.5876 33.0182 76.4148Z" fill="white"/>
<path d="M42.4457 46.5404C42.4017 46.5404 42.3576 46.5404 42.3356 46.5404C42.1814 46.5183 41.851 46.4083 41.7629 45.9239C41.7629 45.9239 41.7629 45.9019 41.7629 45.8799C41.7188 45.8799 41.6748 45.8799 41.6307 45.8799C41.2783 45.9019 40.9699 45.7038 40.8818 45.3736C40.7937 44.9993 41.014 44.647 41.4105 44.537C41.4986 44.515 41.5867 44.4929 41.6528 44.4709C41.7629 44.4489 41.873 44.4269 41.9832 44.3829C42.1594 44.3388 42.3136 44.2728 42.4457 44.1847C42.688 42.6657 43.9215 37.8223 50.3313 37.1619H50.3974H50.6397L50.8159 37.338C51.0142 37.5361 51.0582 37.5802 50.9701 40.266V40.5082L50.7939 40.6623C50.3093 41.1026 46.1242 44.8012 43.459 45.1754C43.4149 45.2635 43.3708 45.3515 43.3268 45.4396C43.2827 45.5277 43.2387 45.6377 43.1946 45.7698C43.1726 45.8579 43.1286 45.9459 43.1065 46.034C42.9523 46.4743 42.6219 46.5404 42.4457 46.5404ZM49.8688 38.3507C45.1991 39.0772 43.9435 42.4675 43.6352 43.9866C45.5295 43.5023 48.5472 41.1246 49.8467 39.9798C49.8688 39.3854 49.8688 38.769 49.8688 38.3507Z" fill="#F9AE1B"/>
<path d="M53.305 74.9619H51.1463L50.3974 33.0889C50.1111 32.6046 49.252 31.0195 49.6044 29.6326C49.7807 28.9501 50.2212 28.4217 50.882 28.0695C51.7851 27.5851 52.8424 27.6072 53.6574 28.0915C54.6045 28.6639 55.4856 30.0068 54.2962 33.0229L53.305 74.9619ZM52.2917 28.84C52.0054 28.84 51.697 28.9061 51.4327 29.0602C51.0362 29.2583 50.8159 29.5445 50.7058 29.9188C50.4635 30.8654 51.1463 32.1863 51.4327 32.6266L51.5208 32.7587V32.9128L52.2256 72.6724L53.1948 32.8027L53.2389 32.7147C53.7675 31.3938 54.164 29.6986 53.0847 29.0602C52.8644 28.9061 52.5781 28.84 52.2917 28.84Z" fill="#F9AE1B"/>
<path d="M50.6173 69.1939L50.5072 68.9958C49.4719 68.6215 48.8552 68.1592 48.723 67.0585C48.5248 65.4293 49.3398 63.8222 50.8156 62.9636C51.7847 62.3912 52.8641 62.061 53.613 61.8629C54.0315 61.7528 54.3839 61.5987 54.6482 61.4005C54.9566 61.1804 55.0447 61.0043 55.0447 60.9162C55.0007 60.674 54.428 60.2998 53.9434 60.1237L53.5689 59.9916V56.7773H54.1416C55.3531 56.7773 56.9611 57.68 57.4897 58.2524C58.9875 59.6173 59.2298 61.1804 58.1946 62.6994C57.5117 63.7121 56.4104 64.4386 55.1108 64.7248C52.4456 65.3413 51.6746 66.1338 51.4764 66.376C51.4764 66.5961 51.4764 66.9704 51.4764 67.3667C51.4764 67.6529 51.4764 67.9391 51.4764 68.1592C51.4764 68.5995 51.4764 68.9518 51.0358 69.0619L50.6173 69.1939ZM54.6703 59.221C55.1989 59.4632 56.0139 59.9696 56.124 60.7401C56.1901 61.1143 56.08 61.7088 55.287 62.2812C54.8905 62.5674 54.4059 62.7875 53.8553 62.9416C53.1945 63.1177 52.2253 63.4259 51.3662 63.9103C50.2869 64.5487 49.6922 65.7155 49.8244 66.9044C49.8684 67.2566 49.9565 67.4768 50.353 67.6969C50.353 67.2786 50.353 66.7282 50.353 66.2439V66.1338L50.3971 66.0458C50.4852 65.8036 51.146 64.4827 54.8685 63.6461C55.8817 63.4039 56.7408 62.8536 57.2694 62.083C57.9963 61.0263 57.8201 60.0796 56.7188 59.0889L56.5425 58.9128C56.2121 58.6486 55.4412 58.1643 54.6923 57.9882V59.221H54.6703Z" fill="#F9AE1B"/>
<path d="M56.2566 72.2101C56.0803 72.2101 55.9262 72.078 55.2874 71.5057C54.8689 71.1094 53.8777 70.2068 53.5693 70.0306C53.1508 69.9646 53.1508 69.5683 53.1508 68.9299V67.3228L54.0318 67.9172C54.3182 68.1153 56.8513 69.8985 56.8513 71.6377V71.7698L56.6751 72.1441L56.3887 72.1881C56.3447 72.2101 56.3006 72.2101 56.2566 72.2101Z" fill="#F9AE1B"/>
<path d="M50.596 58.8469H50.53L50.4639 58.8249C44.5827 57.4599 45.2215 52.7266 45.2435 52.6826C45.4858 50.9874 46.3449 49.6885 47.9088 48.6978C49.3846 47.7732 51.1027 47.1348 52.8648 46.8926C55.9706 46.4523 57.2261 45.3515 57.5345 44.9993C58.2834 43.7884 58.4596 42.7978 58.0852 42.0492C57.4464 40.7723 55.2657 40.31 54.4728 40.244L53.9662 40.2V36.4133L54.649 36.5674C59.8033 37.7122 60.9487 39.6716 61.1249 40.0679C61.6095 40.8824 61.8958 41.741 62.0059 42.6436C62.3143 45.2414 60.9707 47.7512 58.5698 49.0941C55.9045 50.5691 52.4904 51.1856 51.4991 51.3397C50.9044 51.4277 50.3758 51.6479 49.9573 51.9781C49.4727 52.3524 49.2524 52.7486 49.2524 53.1889C49.2965 54.1356 50.4639 55.1263 50.9264 55.4345L51.1687 55.5886V55.8748C51.2128 58.4506 51.2128 58.4506 51.0146 58.6487L50.8383 58.8249L50.596 58.8469ZM57.4244 46.5183C56.5873 47.0687 55.1997 47.6851 53.019 47.9933C51.411 48.2135 49.8471 48.7859 48.5035 49.6445C47.2259 50.4591 46.5211 51.4718 46.3449 52.8587C46.3228 53.0128 45.9043 56.2711 50.0454 57.57C50.0454 57.1957 50.0454 56.6894 50.0233 56.205C49.4506 55.7647 48.1511 54.642 48.107 53.233C48.085 52.4184 48.4594 51.7139 49.2304 51.0975C49.8031 50.6572 50.5079 50.349 51.3009 50.2169C52.2481 50.0628 55.486 49.4904 57.9971 48.1034C60.0015 47.0027 61.1249 44.9112 60.8606 42.7757C60.7724 42.0272 60.5081 41.3007 60.1116 40.6182L60.0676 40.5302C60.0676 40.5302 59.2966 38.9231 55.0675 37.8223V39.1873C56.0807 39.3634 58.2614 39.9138 59.0764 41.5429C59.6491 42.6877 59.4288 44.0526 58.4376 45.6377L57.4023 47.3109V46.5183H57.4244Z" fill="#F9AE1B"/>
<path d="M44.7142 43.8763C44.1415 43.8763 43.6789 43.414 43.6789 42.8416C43.6789 42.2692 44.1415 41.8069 44.7142 41.8069C45.2869 41.8069 45.7495 42.2692 45.7495 42.8416C45.7274 43.414 45.2649 43.8763 44.7142 43.8763ZM44.7142 42.7535C44.6701 42.7535 44.6261 42.7976 44.6261 42.8416C44.6261 42.8856 44.6701 42.9297 44.7142 42.9297C44.7583 42.9297 44.8023 42.8856 44.8023 42.8416C44.8023 42.7976 44.7583 42.7535 44.7142 42.7535Z" fill="#F9AE1B"/>
<path d="M55.1112 59.2209L55.2874 62.6333C55.2874 62.6333 54.186 62.9635 54.0759 62.6993C53.9658 62.4351 53.0186 60.9381 53.0186 60.9381C53.0186 60.9381 49.0978 56.3149 48.9877 56.0287C48.8776 55.7425 47.7762 52.088 47.7762 52.088L50.9261 50.5249L53.6794 55.4343" fill="#E5A424"/>
<path d="M30.8377 42.9814L30.386 43.4329L33.8437 46.8887L34.2954 46.4373L30.8377 42.9814Z" fill="#FBE2C0"/>
<path d="M39.5232 42.9872L36.0655 46.4431L36.5172 46.8946L39.9748 43.4387L39.5232 42.9872Z" fill="#FBE2C0"/>
<path d="M42.3121 42.9778L41.8604 43.4292L45.3181 46.8851L45.7698 46.4336L42.3121 42.9778Z" fill="#FBE2C0"/>
<path d="M51.1296 42.9838L47.6719 46.4397L48.1236 46.8911L51.5813 43.4353L51.1296 42.9838Z" fill="#FBE2C0"/>
<path d="M53.9187 42.9743L53.467 43.4258L56.9247 46.8816L57.3764 46.4302L53.9187 42.9743Z" fill="#FBE2C0"/>
<path d="M30.8345 31.5129L30.3829 31.9644L33.8406 35.4202L34.2922 34.9688L30.8345 31.5129Z" fill="#FBE2C0"/>
<path d="M33.8503 37.3364L30.3926 40.7922L30.8443 41.2437L34.302 37.7878L33.8503 37.3364Z" fill="#FBE2C0"/>
<path d="M40.0759 31.4804L36.6182 34.9363L37.0699 35.3877L40.5276 31.9319L40.0759 31.4804Z" fill="#FBE2C0"/>
<path d="M48.1138 37.3235L47.6621 37.7749L51.1198 41.2308L51.5715 40.7793L48.1138 37.3235Z" fill="#FBE2C0"/>
<path d="M45.4568 37.3327L41.9991 40.7886L42.4507 41.24L45.9084 37.7841L45.4568 37.3327Z" fill="#FBE2C0"/>
<path d="M36.6549 37.3113L36.2032 37.7627L39.6609 41.2186L40.1126 40.7671L36.6549 37.3113Z" fill="#FBE2C0"/>
<path d="M48.109 71.9768L47.6573 72.4282L51.115 75.8841L51.5667 75.4326L48.109 71.9768Z" fill="#FBE2C0"/>
<path d="M45.4519 71.9865L41.9942 75.4424L42.4459 75.8938L45.9036 72.438L45.4519 71.9865Z" fill="#FBE2C0"/>
<path d="M36.6502 71.9648L36.1985 72.4163L39.6562 75.8721L40.1078 75.4207L36.6502 71.9648Z" fill="#FBE2C0"/>
<path d="M39.6621 66.1882L36.2044 69.644L36.656 70.0955L40.1137 66.6396L39.6621 66.1882Z" fill="#FBE2C0"/>
<path d="M42.4515 66.1784L41.9999 66.6299L45.4575 70.0858L45.9092 69.6343L42.4515 66.1784Z" fill="#FBE2C0"/>
<path d="M51.1365 66.1848L47.6788 69.6406L48.1305 70.0921L51.5882 66.6362L51.1365 66.1848Z" fill="#FBE2C0"/>
<path d="M33.8471 48.9148L30.2959 52.4641L30.7476 52.9156L34.2988 49.3663L33.8471 48.9148Z" fill="#FBE2C0"/>
<path d="M45.4482 60.518L41.9905 63.9739L42.4422 64.4253L45.8998 60.9695L45.4482 60.518Z" fill="#FBE2C0"/>
<path d="M36.647 60.4966L36.1954 60.948L39.653 64.4039L40.1047 63.9524L36.647 60.4966Z" fill="#FBE2C0"/>
<path d="M59.7125 60.5051L59.2608 60.9565L62.7185 64.4124L63.1702 63.961L59.7125 60.5051Z" fill="#FBE2C0"/>
<path d="M57.0546 60.5143L53.597 63.9702L54.0486 64.4217L57.5063 60.9658L57.0546 60.5143Z" fill="#FBE2C0"/>
<path d="M48.2379 60.5088L47.7862 60.9602L51.2439 64.4161L51.6955 63.9646L48.2379 60.5088Z" fill="#FBE2C0"/>
<path d="M39.6705 54.4499L36.4776 57.6411L36.9293 58.0926L40.1222 54.9013L39.6705 54.4499Z" fill="#FBE2C0"/>
<path d="M34.0057 60.0659L30.8128 63.2571L31.2645 63.7085L34.4574 60.5173L34.0057 60.0659Z" fill="#FBE2C0"/>
<path d="M42.4477 54.4463L41.996 54.8977L45.4537 58.3536L45.9053 57.9021L42.4477 54.4463Z" fill="#FBE2C0"/>
<path d="M51.1326 54.4521L47.6749 57.908L48.1266 58.3594L51.5843 54.9035L51.1326 54.4521Z" fill="#FBE2C0"/>
<path d="M53.9224 54.4428L53.4707 54.8943L56.9284 58.3502L57.3801 57.8987L53.9224 54.4428Z" fill="#FBE2C0"/>
<path d="M62.7236 54.4641L59.2659 57.9199L59.7176 58.3714L63.1753 54.9155L62.7236 54.4641Z" fill="#FBE2C0"/>
<path d="M45.4443 48.7856L41.9866 52.2415L42.4382 52.6929L45.8959 49.237L45.4443 48.7856Z" fill="#FBE2C0"/>
<path d="M36.6588 48.7795L36.2071 49.231L39.6648 52.6868L40.1164 52.2354L36.6588 48.7795Z" fill="#FBE2C0"/>
<path d="M30.9849 54.622L30.5332 55.0735L33.9909 58.5294L34.4426 58.0779L30.9849 54.622Z" fill="#FBE2C0"/>
<path d="M68.5252 48.7788L65.0676 52.2346L65.5192 52.6861L68.9769 49.2302L68.5252 48.7788Z" fill="#FBE2C0"/>
<path d="M59.7242 48.7881L59.2725 49.2395L62.7302 52.6954L63.1819 52.2439L59.7242 48.7881Z" fill="#FBE2C0"/>
<path d="M57.0505 48.7822L53.5928 52.238L54.0445 52.6895L57.5022 49.2336L57.0505 48.7822Z" fill="#FBE2C0"/>
<path d="M48.2496 48.7915L47.7979 49.2429L51.2556 52.6988L51.7073 52.2473L48.2496 48.7915Z" fill="#FBE2C0"/>
<path d="M29.4058 32.5387C28.8772 32.5387 28.3486 32.3405 27.9521 31.9443C27.5556 31.548 27.3573 31.0416 27.3573 30.4913C27.3573 29.9409 27.5776 29.4345 27.9521 29.0383C28.3486 28.642 28.8552 28.4438 29.4058 28.4438C29.9565 28.4438 30.4631 28.664 30.8596 29.0383C31.6526 29.8308 31.6526 31.1517 30.8596 31.9443C30.4631 32.3405 29.9345 32.5387 29.4058 32.5387ZM29.4058 29.0823C29.0314 29.0823 28.679 29.2364 28.4146 29.5006C28.1503 29.7648 27.9961 30.117 27.9961 30.4913C27.9961 30.8655 28.1503 31.2178 28.4146 31.482C28.9653 32.0323 29.8464 32.0323 30.3971 31.482C30.9477 30.9316 30.9477 30.051 30.3971 29.5006C30.1327 29.2364 29.7803 29.0823 29.4058 29.0823Z" fill="#FBE2C0"/>
<path d="M35.1989 38.3285C34.6482 38.3285 34.1416 38.1083 33.7451 37.7341C32.9522 36.9415 32.9522 35.6206 33.7451 34.8281C34.1416 34.4318 34.6482 34.2336 35.1989 34.2336C35.7496 34.2336 36.2562 34.4538 36.6527 34.8281C37.4456 35.6206 37.4456 36.9415 36.6527 37.7341C36.2782 38.1083 35.7496 38.3285 35.1989 38.3285ZM35.1989 34.8721C34.8244 34.8721 34.472 35.0262 34.2077 35.2904C33.657 35.8408 33.657 36.7214 34.2077 37.2717C34.472 37.5359 34.8244 37.69 35.1989 37.69C35.5734 37.69 35.9258 37.5359 36.1901 37.2717C36.7408 36.7214 36.7408 35.8408 36.1901 35.2904C35.9258 35.0042 35.5734 34.8721 35.1989 34.8721Z" fill="#FBE2C0"/>
<path d="M41.7409 32.4725C41.1902 32.4725 40.6836 32.2524 40.2871 31.8781C39.4941 31.0856 39.4941 29.7646 40.2871 28.9721C40.6836 28.5758 41.1902 28.3777 41.7409 28.3777C42.2916 28.3777 42.7982 28.5978 43.1947 28.9721C43.9876 29.7646 43.9876 31.0856 43.1947 31.8781C42.7982 32.2524 42.2916 32.4725 41.7409 32.4725ZM41.7409 29.0161C41.3664 29.0161 41.014 29.1702 40.7497 29.4344C40.199 29.9848 40.199 30.8654 40.7497 31.4158C41.014 31.68 41.3664 31.8341 41.7409 31.8341C42.1153 31.8341 42.4678 31.68 42.7321 31.4158C43.2828 30.8654 43.2828 29.9848 42.7321 29.4344C42.4678 29.1702 42.1153 29.0161 41.7409 29.0161Z" fill="#FBE2C0"/>
<path d="M29.4058 44.1185C28.8772 44.1185 28.3486 43.9204 27.9521 43.5241C27.5556 43.1278 27.3573 42.6215 27.3573 42.0711C27.3573 41.5207 27.5776 41.0144 27.9521 40.6181C28.745 39.8255 30.0666 39.8255 30.8596 40.6181C31.6526 41.4106 31.6526 42.7316 30.8596 43.5241C30.4631 43.8984 29.9345 44.1185 29.4058 44.1185ZM29.4058 40.6621C29.0534 40.6621 28.679 40.7942 28.4146 41.0804C28.1503 41.3446 27.9961 41.6968 27.9961 42.0711C27.9961 42.4454 28.1503 42.7976 28.4146 43.0618C28.9653 43.6122 29.8464 43.6122 30.3971 43.0618C30.9477 42.5114 30.9477 41.6308 30.3971 41.0804C30.1327 40.7942 29.7803 40.6621 29.4058 40.6621Z" fill="#FBE2C0"/>
<path d="M52.5781 44.1185C52.0494 44.1185 51.5208 43.9204 51.1243 43.5241C50.7278 43.1278 50.5296 42.6215 50.5296 42.0711C50.5296 41.5207 50.7499 41.0144 51.1243 40.6181C51.9173 39.8255 53.2389 39.8255 54.0319 40.6181C54.8248 41.4106 54.8248 42.7316 54.0319 43.5241C53.6354 43.8984 53.1067 44.1185 52.5781 44.1185ZM52.5781 40.6621C52.2257 40.6621 51.8512 40.7942 51.5869 41.0804C51.3226 41.3446 51.1684 41.6968 51.1684 42.0711C51.1684 42.4454 51.3226 42.7976 51.5869 43.0618C52.1375 43.6122 53.0186 43.6122 53.5693 43.0618C54.12 42.5114 54.12 41.6308 53.5693 41.0804C53.2829 40.7942 52.9305 40.6621 52.5781 40.6621Z" fill="#FBE2C0"/>
<path d="M46.785 49.8866C46.2343 49.8866 45.7277 49.6664 45.3313 49.2922C44.5383 48.4996 44.5383 47.1787 45.3313 46.3862C45.7277 45.9899 46.2343 45.7917 46.785 45.7917C47.3357 45.7917 47.8423 46.0119 48.2388 46.3862C48.6353 46.7824 48.8335 47.2888 48.8335 47.8392C48.8335 48.3895 48.6133 48.8959 48.2388 49.2922C47.8423 49.6884 47.3357 49.8866 46.785 49.8866ZM46.785 46.4522C46.4106 46.4522 46.0581 46.6063 45.7938 46.8705C45.5295 47.1347 45.3753 47.4869 45.3753 47.8612C45.3753 48.2354 45.5295 48.5877 45.7938 48.8519C46.0581 49.116 46.4106 49.2702 46.785 49.2702C47.1595 49.2702 47.5119 49.116 47.7762 48.8519C48.0406 48.5877 48.1947 48.2354 48.1947 47.8612C48.1947 47.4869 48.0406 47.1347 47.7762 46.8705C47.5119 46.5843 47.1595 46.4522 46.785 46.4522Z" fill="#FBE2C0"/>
<path d="M40.992 55.6766C40.4633 55.6766 39.9347 55.4785 39.5382 55.0822C38.7452 54.2897 38.7452 52.9687 39.5382 52.1762C39.9347 51.7799 40.4413 51.5818 40.992 51.5818C41.5426 51.5818 42.0493 51.8019 42.4457 52.1762C43.2387 52.9687 43.2387 54.2897 42.4457 55.0822C42.0493 55.4785 41.5206 55.6766 40.992 55.6766ZM40.992 52.2202C40.6175 52.2202 40.2651 52.3743 40.0008 52.6385C39.4501 53.1889 39.4501 54.0695 40.0008 54.6199C40.5514 55.1703 41.4325 55.1703 41.9832 54.6199C42.5338 54.0695 42.5338 53.1889 41.9832 52.6385C41.7188 52.3743 41.3664 52.2202 40.992 52.2202Z" fill="#FBE2C0"/>
<path d="M58.3708 49.8866C57.8201 49.8866 57.3135 49.6664 56.917 49.2922C56.5206 48.8959 56.3223 48.3895 56.3223 47.8392C56.3223 47.2888 56.5426 46.7824 56.917 46.3862C57.3135 45.9899 57.8201 45.7917 58.3708 45.7917C58.9215 45.7917 59.4281 46.0119 59.8246 46.3862C60.6175 47.1787 60.6175 48.4996 59.8246 49.2922C59.4281 49.6884 58.9215 49.8866 58.3708 49.8866ZM58.3708 46.4522C57.9964 46.4522 57.6439 46.6063 57.3796 46.8705C57.1153 47.1347 56.9611 47.4869 56.9611 47.8612C56.9611 48.2354 57.1153 48.5877 57.3796 48.8519C57.6439 49.116 57.9964 49.2702 58.3708 49.2702C58.7453 49.2702 59.0977 49.116 59.362 48.8519C59.9127 48.3015 59.9127 47.4209 59.362 46.8705C59.0977 46.5843 58.7453 46.4522 58.3708 46.4522Z" fill="#FBE2C0"/>
<path d="M52.5781 55.6766C52.0494 55.6766 51.5208 55.4785 51.1243 55.0822C50.7278 54.6859 50.5296 54.1796 50.5296 53.6292C50.5296 53.0788 50.7499 52.5725 51.1243 52.1762C51.5208 51.7799 52.0274 51.5818 52.5781 51.5818C53.1288 51.5818 53.6354 51.8019 54.0319 52.1762C54.8248 52.9687 54.8248 54.2897 54.0319 55.0822C53.6354 55.4785 53.1067 55.6766 52.5781 55.6766ZM52.5781 52.2202C52.2036 52.2202 51.8512 52.3743 51.5869 52.6385C51.3226 52.9027 51.1684 53.2549 51.1684 53.6292C51.1684 54.0035 51.3226 54.3557 51.5869 54.6199C52.1375 55.1703 53.0186 55.1703 53.5693 54.6199C54.12 54.0695 54.12 53.1889 53.5693 52.6385C53.305 52.3743 52.9525 52.2202 52.5781 52.2202Z" fill="#FBE2C0"/>
<path d="M46.785 61.4667C46.2564 61.4667 45.7277 61.2685 45.3313 60.8722C44.5383 60.0797 44.5383 58.7588 45.3313 57.9662C45.7277 57.57 46.2343 57.3718 46.785 57.3718C47.3357 57.3718 47.8423 57.592 48.2388 57.9662C48.6353 58.3625 48.8335 58.8689 48.8335 59.4192C48.8335 59.9696 48.6133 60.476 48.2388 60.8722C47.8423 61.2685 47.3137 61.4667 46.785 61.4667ZM46.785 58.0103C46.4106 58.0103 46.0581 58.1644 45.7938 58.4286C45.5295 58.6927 45.3753 59.045 45.3753 59.4192C45.3753 59.7935 45.5295 60.1457 45.7938 60.4099C46.3445 60.9603 47.2256 60.9603 47.7762 60.4099C48.0406 60.1457 48.1947 59.7935 48.1947 59.4192C48.1947 59.045 48.0406 58.6927 47.7762 58.4286C47.5119 58.1644 47.1595 58.0103 46.785 58.0103Z" fill="#FBE2C0"/>
<path d="M40.992 67.2567C40.4633 67.2567 39.9347 67.0586 39.5382 66.6623C38.7452 65.8697 38.7452 64.5488 39.5382 63.7563C40.3312 62.9637 41.6528 62.9637 42.4457 63.7563C43.2387 64.5488 43.2387 65.8697 42.4457 66.6623C42.0493 67.0586 41.5206 67.2567 40.992 67.2567ZM40.992 63.8003C40.6395 63.8003 40.2651 63.9324 40.0008 64.2186C39.4501 64.769 39.4501 65.6496 40.0008 66.2C40.5514 66.7504 41.4325 66.7504 41.9832 66.2C42.5338 65.6496 42.5338 64.769 41.9832 64.2186C41.7188 63.9324 41.3444 63.8003 40.992 63.8003Z" fill="#FBE2C0"/>
<path d="M76.2349 56.183C75.7063 56.183 75.1776 55.9848 74.7811 55.5886C73.9882 54.796 73.9882 53.4751 74.7811 52.6825C75.5741 51.89 76.8957 51.89 77.6887 52.6825C78.4817 53.4751 78.4817 54.796 77.6887 55.5886C77.2922 55.9848 76.7636 56.183 76.2349 56.183ZM76.2349 52.7266C75.8825 52.7266 75.508 52.8587 75.2437 53.1449C74.693 53.6952 74.693 54.5759 75.2437 55.1262C75.7944 55.6766 76.6755 55.6766 77.2261 55.1262C77.7768 54.5759 77.7768 53.6952 77.2261 53.1449C76.9618 52.8587 76.5873 52.7266 76.2349 52.7266Z" fill="#FBE2C0"/>
<path d="M35.1989 73.0465C34.6482 73.0465 34.1416 72.8263 33.7451 72.4521C32.9522 71.6595 32.9522 70.3386 33.7451 69.5461C34.5381 68.7535 35.8597 68.7535 36.6527 69.5461C37.4456 70.3386 37.4456 71.6595 36.6527 72.4521C36.2782 72.8263 35.7496 73.0465 35.1989 73.0465ZM35.1989 69.5901C34.8465 69.5901 34.472 69.7222 34.2077 70.0084C33.657 70.5588 33.657 71.4394 34.2077 71.9898C34.472 72.2539 34.8244 72.4081 35.1989 72.4081C35.5734 72.4081 35.9258 72.2539 36.1901 71.9898C36.7408 71.4394 36.7408 70.5588 36.1901 70.0084C35.9258 69.7222 35.5734 69.5901 35.1989 69.5901Z" fill="#FBE2C0"/>
<path d="M69.9352 49.8866C69.3846 49.8866 68.8779 49.6664 68.4815 49.2922C67.6885 48.4996 67.6885 47.1787 68.4815 46.3862C68.8779 45.9899 69.3846 45.7917 69.9352 45.7917C70.4859 45.7917 70.9925 46.0119 71.389 46.3862C72.182 47.1787 72.182 48.4996 71.389 49.2922C71.0145 49.6884 70.4859 49.8866 69.9352 49.8866ZM69.9352 46.4522C69.5608 46.4522 69.2083 46.6063 68.944 46.8705C68.3934 47.4209 68.3934 48.3015 68.944 48.8519C69.2083 49.116 69.5608 49.2702 69.9352 49.2702C70.3097 49.2702 70.6621 49.116 70.9264 48.8519C71.4771 48.3015 71.4771 47.4209 70.9264 46.8705C70.6621 46.5843 70.3097 46.4522 69.9352 46.4522Z" fill="#FBE2C0"/>
<path d="M64.1422 55.6766C63.6135 55.6766 63.0849 55.4785 62.6884 55.0822C61.8954 54.2897 61.8954 52.9687 62.6884 52.1762C63.0849 51.7799 63.5915 51.5818 64.1422 51.5818C64.6928 51.5818 65.1995 51.8019 65.5959 52.1762C66.3889 52.9687 66.3889 54.2897 65.5959 55.0822C65.1995 55.4785 64.6708 55.6766 64.1422 55.6766ZM64.1422 52.2202C63.7677 52.2202 63.4153 52.3743 63.151 52.6385C62.6003 53.1889 62.6003 54.0695 63.151 54.6199C63.7016 55.1703 64.5827 55.1703 65.1334 54.6199C65.6841 54.0695 65.6841 53.1889 65.1334 52.6385C64.8691 52.3743 64.5166 52.2202 64.1422 52.2202Z" fill="#FBE2C0"/>
<path d="M58.3708 61.4664C57.8422 61.4664 57.3135 61.2683 56.917 60.872C56.5206 60.4757 56.3223 59.9694 56.3223 59.419C56.3223 58.8686 56.5426 58.3623 56.917 57.966C57.3135 57.5697 57.8201 57.3716 58.3708 57.3716C58.9215 57.3716 59.4281 57.5917 59.8246 57.966C60.6175 58.7585 60.6175 60.0795 59.8246 60.872C59.4061 61.2683 58.8995 61.4664 58.3708 61.4664ZM58.3708 58.01C57.9964 58.01 57.6439 58.1641 57.3796 58.4283C57.1153 58.6925 56.9611 59.0447 56.9611 59.419C56.9611 59.7933 57.1153 60.1455 57.3796 60.4097C57.9303 60.9601 58.8113 60.9601 59.362 60.4097C59.9127 59.8593 59.9127 58.9787 59.362 58.4283C59.0977 58.1641 58.7453 58.01 58.3708 58.01Z" fill="#FBE2C0"/>
<path d="M52.5781 67.2567C52.0494 67.2567 51.5208 67.0586 51.1243 66.6623C50.7278 66.266 50.5296 65.7597 50.5296 65.2093C50.5296 64.6589 50.7499 64.1526 51.1243 63.7563C51.9173 62.9637 53.2389 62.9637 54.0319 63.7563C54.8248 64.5488 54.8248 65.8697 54.0319 66.6623C53.6354 67.0586 53.1067 67.2567 52.5781 67.2567ZM52.5781 63.8003C52.2257 63.8003 51.8512 63.9324 51.5869 64.2186C51.3226 64.4828 51.1684 64.835 51.1684 65.2093C51.1684 65.5835 51.3226 65.9358 51.5869 66.2C52.1375 66.7504 53.0186 66.7504 53.5693 66.2C54.12 65.6496 54.12 64.769 53.5693 64.2186C53.2829 63.9324 52.9305 63.8003 52.5781 63.8003Z" fill="#FBE2C0"/>
<path d="M46.785 73.0465C46.2343 73.0465 45.7277 72.8263 45.3313 72.4521C44.5383 71.6595 44.5383 70.3386 45.3313 69.5461C46.1242 68.7535 47.4458 68.7535 48.2388 69.5461C48.6353 69.9423 48.8335 70.4487 48.8335 70.9991C48.8335 71.5495 48.6133 72.0558 48.2388 72.4521C47.8423 72.8263 47.3357 73.0465 46.785 73.0465ZM46.785 69.5901C46.4326 69.5901 46.0581 69.7222 45.7938 70.0084C45.5295 70.2726 45.3753 70.6248 45.3753 70.9991C45.3753 71.3733 45.5295 71.7256 45.7938 71.9898C46.0581 72.2539 46.4106 72.4081 46.785 72.4081C47.1595 72.4081 47.5119 72.2539 47.7762 71.9898C48.0406 71.7256 48.1947 71.3733 48.1947 70.9991C48.1947 70.6248 48.0406 70.2726 47.7762 70.0084C47.4899 69.7222 47.1375 69.5901 46.785 69.5901Z" fill="#FBE2C0"/>
<path d="M40.992 78.8365C40.4413 78.8365 39.9347 78.6164 39.5382 78.2421C38.7452 77.4496 38.7452 76.1287 39.5382 75.3361C40.3312 74.5436 41.6528 74.5436 42.4457 75.3361C43.2387 76.1287 43.2387 77.4496 42.4457 78.2421C42.0713 78.6164 41.5426 78.8365 40.992 78.8365ZM40.992 75.3801C40.6395 75.3801 40.2651 75.5122 40.0008 75.7984C39.4501 76.3488 39.4501 77.2294 40.0008 77.7798C40.2651 78.044 40.6175 78.1981 40.992 78.1981C41.3664 78.1981 41.7188 78.044 41.9832 77.7798C42.5338 77.2294 42.5338 76.3488 41.9832 75.7984C41.7188 75.5122 41.3444 75.3801 40.992 75.3801Z" fill="#FBE2C0"/>
<path d="M64.1425 67.2567C63.6139 67.2567 63.0852 67.0586 62.6888 66.6623C61.8958 65.8697 61.8958 64.5488 62.6888 63.7563C63.4817 62.9637 64.8033 62.9637 65.5963 63.7563C66.3893 64.5488 66.3893 65.8697 65.5963 66.6623C65.1998 67.0586 64.6712 67.2567 64.1425 67.2567ZM64.1425 63.8003C63.7901 63.8003 63.4157 63.9324 63.1513 64.2186C62.6007 64.769 62.6007 65.6496 63.1513 66.2C63.702 66.7504 64.5831 66.7504 65.1337 66.2C65.6844 65.6496 65.6844 64.769 65.1337 64.2186C64.8694 63.9324 64.517 63.8003 64.1425 63.8003Z" fill="#FBE2C0"/>
<path d="M52.5781 78.8368C52.0274 78.8368 51.5208 78.6166 51.1243 78.2424C50.7278 77.8461 50.5296 77.3397 50.5296 76.7894C50.5296 76.239 50.7499 75.7326 51.1243 75.3364C51.9173 74.5438 53.2389 74.5438 54.0319 75.3364C54.8248 76.1289 54.8248 77.4498 54.0319 78.2424C53.6354 78.6166 53.1288 78.8368 52.5781 78.8368ZM52.5781 75.3804C52.2257 75.3804 51.8512 75.5125 51.5869 75.7987C51.3226 76.0629 51.1684 76.4151 51.1684 76.7894C51.1684 77.1636 51.3226 77.5159 51.5869 77.78C51.8512 78.0442 52.2036 78.1983 52.5781 78.1983C52.9525 78.1983 53.305 78.0442 53.5693 77.78C54.12 77.2297 54.12 76.3491 53.5693 75.7987C53.2829 75.5125 52.9305 75.3804 52.5781 75.3804Z" fill="#FBE2C0"/>
<path d="M65.5386 66.0149L65.087 66.4663L69.1209 70.4982L69.5726 70.0467L65.5386 66.0149Z" fill="#FBE2C0"/>
<path d="M74.7917 66.5844L71.334 70.0403L71.7857 70.4917L75.2434 67.0359L74.7917 66.5844Z" fill="#FBE2C0"/>
<path d="M69.1042 60.9174L65.6465 64.3733L66.0982 64.8247L69.5559 61.3689L69.1042 60.9174Z" fill="#FBE2C0"/>
<path d="M71.8932 60.9082L71.4415 61.3596L74.8992 64.8155L75.3509 64.364L71.8932 60.9082Z" fill="#FBE2C0"/>
<path d="M65.7527 54.6494L65.301 55.1008L68.7587 58.5567L69.2104 58.1053L65.7527 54.6494Z" fill="#FBE2C0"/>
<path d="M71.5875 49.061L71.1358 49.5125L74.5935 52.9683L75.0452 52.5169L71.5875 49.061Z" fill="#FBE2C0"/>
<path d="M74.7878 54.8518L71.3301 58.3076L71.7818 58.7591L75.2395 55.3032L74.7878 54.8518Z" fill="#FBE2C0"/>
<path d="M70.4421 61.8629C69.9134 61.8629 69.3848 61.6648 68.9883 61.2685C68.1954 60.4759 68.1954 59.155 68.9883 58.3625C69.3848 57.9662 69.8914 57.7681 70.4421 57.7681C70.9928 57.7681 71.4994 57.9882 71.8959 58.3625C72.2923 58.7588 72.4906 59.2651 72.4906 59.8155C72.4906 60.3659 72.2703 60.8722 71.8959 61.2685C71.4994 61.6648 70.9707 61.8629 70.4421 61.8629ZM70.4421 58.4065C70.0676 58.4065 69.7152 58.5606 69.4509 58.8248C69.1866 59.089 69.0324 59.4412 69.0324 59.8155C69.0324 60.1897 69.1866 60.542 69.4509 60.8062C70.0016 61.3566 70.8826 61.3566 71.4333 60.8062C71.6976 60.542 71.8518 60.1897 71.8518 59.8155C71.8518 59.4412 71.6976 59.089 71.4333 58.8248C71.169 58.5606 70.8165 58.4065 70.4421 58.4065Z" fill="#FBE2C0"/>
<path d="M57.5044 72.4887L54.0467 75.9446L54.4984 76.396L57.9561 72.9402L57.5044 72.4887Z" fill="#FBE2C0"/>
<path d="M63.0045 66.6347L59.5468 70.0906L59.9985 70.542L63.4562 67.0862L63.0045 66.6347Z" fill="#FBE2C0"/>
<path d="M54.1383 66.2051L53.6866 66.6565L57.1443 70.1124L57.596 69.6609L54.1383 66.2051Z" fill="#FBE2C0"/>
<path d="M58.8337 73.443C58.3051 73.443 57.7764 73.2448 57.3799 72.8486C56.587 72.056 56.587 70.7351 57.3799 69.9426C57.7764 69.5463 58.283 69.3481 58.8337 69.3481C59.3844 69.3481 59.891 69.5683 60.2875 69.9426C60.684 70.3388 60.8822 70.8452 60.8822 71.3956C60.8822 71.9459 60.6619 72.4523 60.2875 72.8486C59.891 73.2228 59.3623 73.443 58.8337 73.443ZM58.8337 69.9866C58.4592 69.9866 58.1068 70.1407 57.8425 70.4049C57.5782 70.6691 57.424 71.0213 57.424 71.3956C57.424 71.7698 57.5782 72.1221 57.8425 72.3862C58.3932 72.9366 59.2742 72.9366 59.8249 72.3862C60.0892 72.1221 60.2434 71.7698 60.2434 71.3956C60.2434 71.0213 60.0892 70.6691 59.8249 70.4049C59.5606 70.1187 59.2082 69.9866 58.8337 69.9866Z" fill="#FBE2C0"/>
<path d="M76.2349 67.6529C75.7063 67.6529 75.1776 67.4548 74.7811 67.0585C74.3847 66.6623 74.1864 66.1559 74.1864 65.6055C74.1864 65.0551 74.4067 64.5488 74.7811 64.1525C75.5741 63.36 76.8957 63.36 77.6887 64.1525C78.4817 64.9451 78.4817 66.266 77.6887 67.0585C77.2922 67.4548 76.7636 67.6529 76.2349 67.6529ZM76.2349 64.1966C75.8825 64.1966 75.508 64.3286 75.2437 64.6148C74.9794 64.879 74.8252 65.2313 74.8252 65.6055C74.8252 65.9798 74.9794 66.332 75.2437 66.5962C75.7944 67.1466 76.6755 67.1466 77.2261 66.5962C77.7768 66.0458 77.7768 65.1652 77.2261 64.6148C76.9398 64.3286 76.5873 64.1966 76.2349 64.1966Z" fill="#FBE2C0"/>
<path d="M70.4421 73.443C69.8914 73.443 69.3848 73.2228 68.9883 72.8486C68.1954 72.056 68.1954 70.7351 68.9883 69.9426C69.7813 69.15 71.1029 69.15 71.8959 69.9426C72.2923 70.3388 72.4906 70.8452 72.4906 71.3956C72.4906 71.9459 72.2703 72.4523 71.8959 72.8486C71.5214 73.2228 70.9928 73.443 70.4421 73.443ZM70.4421 69.9866C70.0897 69.9866 69.7152 70.1187 69.4509 70.4049C69.1866 70.6691 69.0324 71.0213 69.0324 71.3956C69.0324 71.7698 69.1866 72.1221 69.4509 72.3862C69.7152 72.6504 70.0676 72.8045 70.4421 72.8045C70.8165 72.8045 71.169 72.6504 71.4333 72.3862C71.6976 72.1221 71.8518 71.7698 71.8518 71.3956C71.8518 71.0213 71.6976 70.6691 71.4333 70.4049C71.169 70.1187 70.7945 69.9866 70.4421 69.9866Z" fill="#FBE2C0"/>
<path d="M40.8816 44.1405C40.3529 44.1405 39.8243 43.9424 39.4278 43.5461C38.6348 42.7535 38.6348 41.4326 39.4278 40.6401C40.2207 39.8475 41.5424 39.8475 42.3353 40.6401C43.1283 41.4326 43.1283 42.7535 42.3353 43.5461C41.9388 43.9424 41.4102 44.1405 40.8816 44.1405ZM40.8816 40.6841C40.5291 40.6841 40.1547 40.8162 39.8903 41.1024C39.3397 41.6528 39.3397 42.5334 39.8903 43.0838C40.441 43.6341 41.3221 43.6341 41.8728 43.0838C42.4234 42.5334 42.4234 41.6528 41.8728 41.1024C41.6084 40.8162 41.234 40.6841 40.8816 40.6841Z" fill="#FBE2C0"/>
<path d="M35.1549 49.8204C34.6262 49.8204 34.0976 49.6223 33.7011 49.226C32.9081 48.4335 32.9081 47.1125 33.7011 46.32C34.494 45.5274 35.8157 45.5274 36.6086 46.32C37.4016 47.1125 37.4016 48.4335 36.6086 49.226C36.2121 49.6003 35.6835 49.8204 35.1549 49.8204ZM35.1549 46.364C34.8024 46.364 34.428 46.4961 34.1636 46.7823C33.613 47.3327 33.613 48.2133 34.1636 48.7637C34.7143 49.3141 35.5954 49.3141 36.1461 48.7637C36.6967 48.2133 36.6967 47.3327 36.1461 46.7823C35.8817 46.4961 35.5293 46.364 35.1549 46.364Z" fill="#FBE2C0"/>
<path d="M35.7273 61.2023C35.1766 61.2023 34.67 60.9821 34.2735 60.6078C33.877 60.2116 33.6788 59.7052 33.6788 59.1548C33.6788 58.6045 33.899 58.0981 34.2735 57.7018C35.0665 56.9093 36.3881 56.9093 37.181 57.7018C37.974 58.4944 37.974 59.8153 37.181 60.6078C36.7845 60.9821 36.2779 61.2023 35.7273 61.2023ZM35.7273 57.7459C35.3748 57.7459 35.0004 57.878 34.736 58.1642C34.4717 58.4283 34.3175 58.7806 34.3175 59.1548C34.3175 59.5291 34.4717 59.8813 34.736 60.1455C35.0004 60.4097 35.3528 60.5638 35.7273 60.5638C36.1017 60.5638 36.4541 60.4097 36.7185 60.1455C37.2691 59.5951 37.2691 58.7145 36.7185 58.1642C36.4541 57.878 36.0797 57.7459 35.7273 57.7459Z" fill="#FBE2C0"/>
<path d="M29.7362 66.2879C29.1856 66.2879 28.679 66.0678 28.2825 65.6935C27.886 65.2973 27.6877 64.7909 27.6877 64.2405C27.6877 63.6901 27.908 63.1838 28.2825 62.7875C29.0754 61.995 30.397 61.995 31.19 62.7875C31.983 63.5801 31.983 64.901 31.19 65.6935C30.7935 66.0678 30.2869 66.2879 29.7362 66.2879ZM29.7362 62.8316C29.3838 62.8316 29.0094 62.9636 28.745 63.2498C28.4807 63.514 28.3265 63.8663 28.3265 64.2405C28.3265 64.6148 28.4807 64.967 28.745 65.2312C29.0094 65.4954 29.3618 65.6495 29.7362 65.6495C30.1107 65.6495 30.4631 65.4954 30.7274 65.2312C31.2781 64.6808 31.2781 63.8002 30.7274 63.2498C30.4411 62.9636 30.0887 62.8316 29.7362 62.8316Z" fill="#FBE2C0"/>
<path d="M29.3618 55.8526C28.8111 55.8526 28.3045 55.6325 27.908 55.2582C27.5115 54.862 27.3133 54.3556 27.3133 53.8052C27.3133 53.2548 27.5336 52.7485 27.908 52.3522C28.701 51.5597 30.0226 51.5597 30.8156 52.3522C31.6085 53.1448 31.6085 54.4657 30.8156 55.2582C30.4411 55.6325 29.9125 55.8526 29.3618 55.8526ZM29.3618 52.3963C29.0094 52.3963 28.6349 52.5283 28.3706 52.8145C28.1063 53.0787 27.9521 53.431 27.9521 53.8052C27.9521 54.1795 28.1063 54.5317 28.3706 54.7959C28.6349 55.0601 28.9873 55.2142 29.3618 55.2142C29.7362 55.2142 30.0887 55.0601 30.353 54.7959C30.9037 54.2455 30.9037 53.3649 30.353 52.8145C30.0887 52.5283 29.7362 52.3963 29.3618 52.3963Z" fill="#FBE2C0"/>
<path d="M24.9079 48.8542L24.4562 49.3057L27.9139 52.7615L28.3656 52.3101L24.9079 48.8542Z" fill="#FBE2C0"/>
<path d="M23.3044 50.0848C22.7537 50.0848 22.2471 49.8647 21.8506 49.4904C21.4541 49.0941 21.2559 48.5878 21.2559 48.0374C21.2559 47.487 21.4762 46.9807 21.8506 46.5844C22.6436 45.7919 23.9652 45.7919 24.7582 46.5844C25.5511 47.377 25.5511 48.6979 24.7582 49.4904C24.3617 49.8647 23.8551 50.0848 23.3044 50.0848ZM23.3044 46.6284C22.952 46.6284 22.5775 46.7605 22.3132 47.0467C22.0489 47.3109 21.8947 47.6631 21.8947 48.0374C21.8947 48.4117 22.0489 48.7639 22.3132 49.0281C22.5775 49.2923 22.9299 49.4464 23.3044 49.4464C23.6789 49.4464 24.0313 49.2923 24.2956 49.0281C24.8463 48.4777 24.8463 47.5971 24.2956 47.0467C24.0093 46.7605 23.6568 46.6284 23.3044 46.6284Z" fill="#FBE2C0"/>
<path d="M51.2466 42.9689L47.7889 46.4248L48.2406 46.8762L51.6983 43.4204L51.2466 42.9689Z" fill="#FBE2C0"/>
<path d="M54.0357 42.9597L53.584 43.4111L57.0417 46.867L57.4934 46.4156L54.0357 42.9597Z" fill="#FBE2C0"/>
<path d="M62.8531 42.9653L59.3954 46.4211L59.8471 46.8726L63.3048 43.4167L62.8531 42.9653Z" fill="#FBE2C0"/>
<path d="M65.6422 42.9558L65.1905 43.4072L68.6482 46.8631L69.0998 46.4117L65.6422 42.9558Z" fill="#FBE2C0"/>
<path d="M74.3279 42.9621L70.8702 46.418L71.3218 46.8694L74.7795 43.4135L74.3279 42.9621Z" fill="#FBE2C0"/>
<path d="M80.3523 49.0903L76.8946 52.5461L77.3463 52.9976L80.804 49.5417L80.3523 49.0903Z" fill="#FBE2C0"/>
<path d="M54.0326 31.4912L53.5809 31.9426L57.0386 35.3985L57.4903 34.9471L54.0326 31.4912Z" fill="#FBE2C0"/>
<path d="M62.8493 31.497L59.3916 34.9529L59.8433 35.4043L63.301 31.9485L62.8493 31.497Z" fill="#FBE2C0"/>
<path d="M65.6391 31.4873L65.1874 31.9387L68.6451 35.3946L69.0968 34.9431L65.6391 31.4873Z" fill="#FBE2C0"/>
<path d="M71.4439 37.3015L70.9922 37.7529L74.4499 41.2088L74.9016 40.7574L71.4439 37.3015Z" fill="#FBE2C0"/>
<path d="M68.6392 37.2954L65.1815 40.7512L65.6332 41.2027L69.0909 37.7468L68.6392 37.2954Z" fill="#FBE2C0"/>
<path d="M59.8533 37.2898L59.4016 37.7412L62.8593 41.1971L63.311 40.7456L59.8533 37.2898Z" fill="#FBE2C0"/>
<path d="M57.0329 37.299L53.5752 40.7549L54.0269 41.2063L57.4846 37.7505L57.0329 37.299Z" fill="#FBE2C0"/>
<path d="M75.7507 44.0746C75.222 44.0746 74.6934 43.8764 74.2969 43.4802C73.504 42.6876 73.504 41.3667 74.2969 40.5741C75.0899 39.7816 76.4115 39.7816 77.2045 40.5741C77.9974 41.3667 77.9974 42.6876 77.2045 43.4802C76.808 43.8764 76.2793 44.0746 75.7507 44.0746ZM75.7507 40.6182C75.3983 40.6182 75.0238 40.7503 74.7595 41.0365C74.2088 41.5868 74.2088 42.4675 74.7595 43.0178C75.3102 43.5682 76.1912 43.5682 76.7419 43.0178C77.2926 42.4675 77.2926 41.5868 76.7419 41.0365C76.4776 40.7723 76.1251 40.6182 75.7507 40.6182Z" fill="#FBE2C0"/>
<path d="M69.9792 49.8646C69.4285 49.8646 68.9219 49.6445 68.5254 49.2702C68.129 48.8739 67.9307 48.3676 67.9307 47.8172C67.9307 47.2668 68.151 46.7605 68.5254 46.3642C68.9219 45.9679 69.4285 45.7698 69.9792 45.7698C70.5299 45.7698 71.0365 45.9899 71.433 46.3642C72.2259 47.1567 72.2259 48.4777 71.433 49.2702C71.0365 49.6445 70.5299 49.8646 69.9792 49.8646ZM69.9792 46.4082C69.6048 46.4082 69.2523 46.5623 68.988 46.8265C68.7237 47.0907 68.5695 47.4429 68.5695 47.8172C68.5695 48.1915 68.7237 48.5437 68.988 48.8079C69.2523 49.0721 69.6048 49.2262 69.9792 49.2262C70.3537 49.2262 70.7061 49.0721 70.9704 48.8079C71.5211 48.2575 71.5211 47.3769 70.9704 46.8265C70.6841 46.5623 70.3537 46.4082 69.9792 46.4082Z" fill="#FBE2C0"/>
<path d="M81.5427 49.8644C80.992 49.8644 80.4854 49.6442 80.0889 49.27C79.6924 48.8737 79.4942 48.3673 79.4942 47.8169C79.4942 47.2666 79.7145 46.7602 80.0889 46.3639C80.4854 45.9677 80.992 45.7695 81.5427 45.7695C82.0934 45.7695 82.6 45.9897 82.9965 46.3639C83.7894 47.1565 83.7894 48.4774 82.9965 49.27C82.622 49.6442 82.0934 49.8644 81.5427 49.8644ZM81.5427 46.408C81.1682 46.408 80.8158 46.5621 80.5515 46.8263C80.2872 47.0904 80.133 47.4427 80.133 47.8169C80.133 48.1912 80.2872 48.5435 80.5515 48.8076C80.8158 49.0718 81.1682 49.2259 81.5427 49.2259C81.9171 49.2259 82.2696 49.0718 82.5339 48.8076C83.0846 48.2573 83.0846 47.3766 82.5339 46.8263C82.2696 46.5621 81.9171 46.408 81.5427 46.408Z" fill="#FBE2C0"/>
<path d="M69.9792 49.8644C69.4285 49.8644 68.9219 49.6442 68.5254 49.27C68.129 48.8737 67.9307 48.3673 67.9307 47.8169C67.9307 47.2666 68.151 46.7602 68.5254 46.3639C68.9219 45.9677 69.4285 45.7695 69.9792 45.7695C70.5299 45.7695 71.0365 45.9897 71.433 46.3639C72.2259 47.1565 72.2259 48.4774 71.433 49.27C71.0365 49.6442 70.5299 49.8644 69.9792 49.8644ZM69.9792 46.408C69.6048 46.408 69.2523 46.5621 68.988 46.8263C68.7237 47.0904 68.5695 47.4427 68.5695 47.8169C68.5695 48.1912 68.7237 48.5435 68.988 48.8076C69.2523 49.0718 69.6048 49.2259 69.9792 49.2259C70.3537 49.2259 70.7061 49.0718 70.9704 48.8076C71.5211 48.2573 71.5211 47.3766 70.9704 46.8263C70.6841 46.5621 70.3537 46.408 69.9792 46.408Z" fill="#FBE2C0"/>
<path d="M52.5993 32.5165C52.0707 32.5165 51.542 32.3183 51.1456 31.9221C50.7491 31.5258 50.5508 31.0194 50.5508 30.469C50.5508 29.9187 50.7711 29.4123 51.1456 29.016C51.542 28.6198 52.0487 28.4216 52.5993 28.4216C53.15 28.4216 53.6566 28.6418 54.0531 29.016C54.8461 29.8086 54.8461 31.1295 54.0531 31.9221C53.6566 32.3183 53.128 32.5165 52.5993 32.5165ZM52.5993 29.0601C52.2249 29.0601 51.8724 29.2142 51.6081 29.4784C51.3438 29.7425 51.1896 30.0948 51.1896 30.469C51.1896 30.8433 51.3438 31.1955 51.6081 31.4597C52.1588 32.0101 53.0399 32.0101 53.5905 31.4597C54.1412 30.9094 54.1412 30.0287 53.5905 29.4784C53.3262 29.1922 52.9738 29.0601 52.5993 29.0601Z" fill="#FBE2C0"/>
<path d="M64.1863 32.5165C63.6577 32.5165 63.129 32.3183 62.7325 31.9221C61.9396 31.1295 61.9396 29.8086 62.7325 29.016C63.5255 28.2235 64.8471 28.2235 65.6401 29.016C66.4331 29.8086 66.4331 31.1295 65.6401 31.9221C65.2436 32.3183 64.715 32.5165 64.1863 32.5165ZM64.1863 29.0601C63.8339 29.0601 63.4594 29.1922 63.1951 29.4784C62.6444 30.0287 62.6444 30.9094 63.1951 31.4597C63.7458 32.0101 64.6269 32.0101 65.1775 31.4597C65.7282 30.9094 65.7282 30.0287 65.1775 29.4784C64.8912 29.1922 64.5388 29.0601 64.1863 29.0601Z" fill="#FBE2C0"/>
<path d="M58.3933 38.3065C57.8426 38.3065 57.336 38.0864 56.9395 37.7121C56.543 37.3158 56.3448 36.8095 56.3448 36.2591C56.3448 35.7087 56.565 35.2024 56.9395 34.8061C57.336 34.4098 57.8426 34.2117 58.3933 34.2117C58.9439 34.2117 59.4506 34.4318 59.847 34.8061C60.2435 35.2024 60.4418 35.7087 60.4418 36.2591C60.4418 36.8095 60.2215 37.3158 59.847 37.7121C59.4506 38.0864 58.9439 38.3065 58.3933 38.3065ZM58.3933 34.8501C58.0188 34.8501 57.6664 35.0042 57.4021 35.2684C57.1377 35.5326 56.9836 35.8848 56.9836 36.2591C56.9836 36.6333 57.1377 36.9856 57.4021 37.2498C57.6664 37.514 58.0188 37.6681 58.3933 37.6681C58.7677 37.6681 59.1202 37.514 59.3845 37.2498C59.6488 36.9856 59.803 36.6333 59.803 36.2591C59.803 35.8848 59.6488 35.5326 59.3845 35.2684C59.1202 34.9822 58.7677 34.8501 58.3933 34.8501Z" fill="#FBE2C0"/>
<path d="M69.9793 38.3065C69.4286 38.3065 68.922 38.0864 68.5255 37.7121C68.1291 37.3158 67.9308 36.8095 67.9308 36.2591C67.9308 35.7087 68.1511 35.2024 68.5255 34.8061C68.922 34.4098 69.4286 34.2117 69.9793 34.2117C70.53 34.2117 71.0366 34.4318 71.4331 34.8061C72.226 35.5986 72.226 36.9195 71.4331 37.7121C71.0366 38.0864 70.53 38.3065 69.9793 38.3065ZM69.9793 34.8501C69.6049 34.8501 69.2524 35.0042 68.9881 35.2684C68.7238 35.5326 68.5696 35.8848 68.5696 36.2591C68.5696 36.6333 68.7238 36.9856 68.9881 37.2498C69.2524 37.514 69.6049 37.6681 69.9793 37.6681C70.3538 37.6681 70.7062 37.514 70.9705 37.2498C71.5212 36.6994 71.5212 35.8188 70.9705 35.2684C70.6842 34.9822 70.3538 34.8501 69.9793 34.8501Z" fill="#FBE2C0"/>
<path d="M64.1862 44.0746C63.6576 44.0746 63.1289 43.8764 62.7325 43.4802C61.9395 42.6876 61.9395 41.3667 62.7325 40.5741C63.5254 39.7816 64.847 39.7816 65.64 40.5741C66.433 41.3667 66.433 42.6876 65.64 43.4802C65.2435 43.8764 64.7149 44.0746 64.1862 44.0746ZM64.1862 40.6182C63.8338 40.6182 63.4594 40.7503 63.195 41.0365C62.6444 41.5868 62.6444 42.4675 63.195 43.0178C63.7457 43.5682 64.6268 43.5682 65.1774 43.0178C65.7281 42.4675 65.7281 41.5868 65.1774 41.0365C64.8911 40.7723 64.5387 40.6182 64.1862 40.6182Z" fill="#FBE2C0"/>
<path d="M52.5993 32.5165C52.0707 32.5165 51.542 32.3183 51.1456 31.9221C50.7491 31.5258 50.5508 31.0194 50.5508 30.469C50.5508 29.9187 50.7711 29.4123 51.1456 29.016C51.542 28.6198 52.0487 28.4216 52.5993 28.4216C53.15 28.4216 53.6566 28.6418 54.0531 29.016C54.8461 29.8086 54.8461 31.1295 54.0531 31.9221C53.6566 32.3183 53.128 32.5165 52.5993 32.5165ZM52.5993 29.0601C52.2249 29.0601 51.8724 29.2142 51.6081 29.4784C51.3438 29.7425 51.1896 30.0948 51.1896 30.469C51.1896 30.8433 51.3438 31.1955 51.6081 31.4597C52.1588 32.0101 53.0399 32.0101 53.5905 31.4597C54.1412 30.9094 54.1412 30.0287 53.5905 29.4784C53.3262 29.1922 52.9738 29.0601 52.5993 29.0601Z" fill="#FBE2C0"/>
<path d="M58.3933 38.3065C57.8426 38.3065 57.336 38.0864 56.9395 37.7121C56.543 37.3158 56.3448 36.8095 56.3448 36.2591C56.3448 35.7087 56.565 35.2024 56.9395 34.8061C57.336 34.4098 57.8426 34.2117 58.3933 34.2117C58.9439 34.2117 59.4506 34.4318 59.847 34.8061C60.2435 35.2024 60.4418 35.7087 60.4418 36.2591C60.4418 36.8095 60.2215 37.3158 59.847 37.7121C59.4506 38.0864 58.9439 38.3065 58.3933 38.3065ZM58.3933 34.8501C58.0188 34.8501 57.6664 35.0042 57.4021 35.2684C57.1377 35.5326 56.9836 35.8848 56.9836 36.2591C56.9836 36.6333 57.1377 36.9856 57.4021 37.2498C57.6664 37.514 58.0188 37.6681 58.3933 37.6681C58.7677 37.6681 59.1202 37.514 59.3845 37.2498C59.6488 36.9856 59.803 36.6333 59.803 36.2591C59.803 35.8848 59.6488 35.5326 59.3845 35.2684C59.1202 34.9822 58.7677 34.8501 58.3933 34.8501Z" fill="#FBE2C0"/>
<path d="M52.5993 44.0746C52.0707 44.0746 51.542 43.8764 51.1456 43.4802C50.3526 42.6876 50.3526 41.3667 51.1456 40.5741C51.9385 39.7816 53.2601 39.7816 54.0531 40.5741C54.8461 41.3667 54.8461 42.6876 54.0531 43.4802C53.6566 43.8764 53.128 44.0746 52.5993 44.0746ZM52.5993 40.6182C52.2469 40.6182 51.8724 40.7503 51.6081 41.0365C51.0574 41.5868 51.0574 42.4675 51.6081 43.0178C52.1588 43.5682 53.0399 43.5682 53.5905 43.0178C54.1412 42.4675 54.1412 41.5868 53.5905 41.0365C53.3262 40.7723 52.9518 40.6182 52.5993 40.6182Z" fill="#FBE2C0"/>
<path d="M47.9115 37.0385L47.4598 37.49L50.9175 40.9459L51.3692 40.4944L47.9115 37.0385Z" fill="#FBE2C0"/>
<path d="M50.9081 31.3779L47.4504 34.8337L47.9021 35.2852L51.3597 31.8293L50.9081 31.3779Z" fill="#FBE2C0"/>
<path d="M46.4763 38.1525C45.9476 38.1525 45.419 37.9543 45.0225 37.558C44.2295 36.7655 44.2295 35.4446 45.0225 34.652C45.8155 33.8595 47.1371 33.8595 47.9301 34.652C48.723 35.4446 48.723 36.7655 47.9301 37.558C47.5336 37.9543 47.0049 38.1525 46.4763 38.1525ZM46.4763 34.7181C46.1238 34.7181 45.7494 34.8502 45.4851 35.1364C44.9344 35.6867 44.9344 36.5674 45.4851 37.1177C46.0357 37.6681 46.9168 37.6681 47.4675 37.1177C48.0182 36.5674 48.0182 35.6867 47.4675 35.1364C47.2032 34.8502 46.8287 34.7181 46.4763 34.7181Z" fill="#FBE2C0"/>
<path d="M46.8064 49.8644C46.2557 49.8644 45.7491 49.6442 45.3526 49.27C44.5596 48.4774 44.5596 47.1565 45.3526 46.3639C45.7491 45.9677 46.2557 45.7695 46.8064 45.7695C47.357 45.7695 47.8636 45.9897 48.2601 46.3639C48.6566 46.7602 48.8549 47.2666 48.8549 47.8169C48.8549 48.3673 48.6346 48.8737 48.2601 49.27C47.8857 49.6442 47.357 49.8644 46.8064 49.8644ZM46.8064 46.408C46.4319 46.408 46.0795 46.5621 45.8151 46.8263C45.2645 47.3766 45.2645 48.2573 45.8151 48.8076C46.0795 49.0718 46.4319 49.2259 46.8064 49.2259C47.1808 49.2259 47.5332 49.0718 47.7976 48.8076C48.0619 48.5435 48.2161 48.1912 48.2161 47.8169C48.2161 47.4427 48.0619 47.0904 47.7976 46.8263C47.5332 46.5621 47.1808 46.408 46.8064 46.408Z" fill="#FBE2C0"/>
<path d="M64.1862 44.0746C63.6576 44.0746 63.1289 43.8764 62.7325 43.4802C61.9395 42.6876 61.9395 41.3667 62.7325 40.5741C63.5254 39.7816 64.847 39.7816 65.64 40.5741C66.433 41.3667 66.433 42.6876 65.64 43.4802C65.2435 43.8764 64.7149 44.0746 64.1862 44.0746ZM64.1862 40.6182C63.8338 40.6182 63.4594 40.7503 63.195 41.0365C62.6444 41.5868 62.6444 42.4675 63.195 43.0178C63.7457 43.5682 64.6268 43.5682 65.1774 43.0178C65.7281 42.4675 65.7281 41.5868 65.1774 41.0365C64.8911 40.7723 64.5387 40.6182 64.1862 40.6182Z" fill="#FBE2C0"/>
<path d="M58.3933 49.8644C57.8426 49.8644 57.336 49.6442 56.9395 49.27C56.543 48.8737 56.3448 48.3673 56.3448 47.8169C56.3448 47.2666 56.565 46.7602 56.9395 46.3639C57.336 45.9677 57.8426 45.7695 58.3933 45.7695C58.9439 45.7695 59.4506 45.9897 59.847 46.3639C60.2435 46.7602 60.4418 47.2666 60.4418 47.8169C60.4418 48.3673 60.2215 48.8737 59.847 49.27C59.4506 49.6442 58.9439 49.8644 58.3933 49.8644ZM58.3933 46.408C58.0188 46.408 57.6664 46.5621 57.4021 46.8263C57.1377 47.0904 56.9836 47.4427 56.9836 47.8169C56.9836 48.1912 57.1377 48.5435 57.4021 48.8076C57.6664 49.0718 58.0188 49.2259 58.3933 49.2259C58.7677 49.2259 59.1202 49.0718 59.3845 48.8076C59.6488 48.5435 59.803 48.1912 59.803 47.8169C59.803 47.4427 59.6488 47.0904 59.3845 46.8263C59.1202 46.5621 58.7677 46.408 58.3933 46.408Z" fill="#FBE2C0"/>
<path d="M50.3977 40.244C50.3977 40.244 45.6179 44.537 43.1068 44.6471C42.9967 44.8232 42.8865 44.9993 42.7984 45.1754C42.6883 45.3736 42.6442 45.6157 42.5561 45.8359C42.5341 45.9019 42.5121 45.99 42.424 45.99C42.3359 45.968 42.3359 45.9019 42.3138 45.8139V45.7919C42.2478 45.3075 42.2478 45.3075 41.7411 45.3295C41.6751 45.3295 41.631 45.3295 41.5649 45.3295C41.4988 45.3295 41.4328 45.3075 41.4107 45.2415C41.3887 45.1534 41.4548 45.1094 41.5209 45.0874C41.7191 45.0433 41.9174 44.9993 42.1156 44.9333C42.424 44.8452 42.7103 44.7131 42.9526 44.515C43.0628 43.6123 43.9218 38.3947 50.3757 37.7343C50.4858 37.7123 50.3977 40.244 50.3977 40.244Z" fill="white"/>
<path d="M42.4457 46.5624C42.4017 46.5624 42.3576 46.5624 42.3356 46.5624C42.1814 46.5404 41.829 46.4303 41.7409 45.924V45.902C41.6968 45.902 41.6528 45.902 41.6307 45.902C41.2563 45.924 40.9479 45.7258 40.8598 45.3736C40.7497 44.9993 40.992 44.6251 41.3884 44.515C41.4765 44.493 41.5647 44.471 41.6307 44.449C41.7409 44.4269 41.851 44.4049 41.9611 44.3609C42.1374 44.3169 42.2915 44.2508 42.4237 44.1628C42.666 42.6217 43.9215 37.7783 50.3313 37.1399H50.3974H50.6397L50.8159 37.316C51.0142 37.5142 51.0582 37.5582 50.9701 40.2661V40.5082L50.7939 40.6843C50.3093 41.1247 46.1242 44.8232 43.459 45.1975C43.4149 45.2855 43.3709 45.3736 43.3268 45.4396C43.2828 45.5277 43.2387 45.6378 43.1946 45.7699C43.1726 45.8579 43.1286 45.946 43.1065 46.0341C42.9744 46.4964 42.6219 46.5624 42.4457 46.5624ZM49.8468 38.3727C45.2211 39.0993 43.9876 42.4456 43.6572 43.9646C45.5515 43.4583 48.5251 41.1026 49.8247 39.9799C49.8468 39.4075 49.8468 38.791 49.8468 38.3727Z" fill="#F9AE1B"/>
<path d="M50.9708 32.9348C50.9708 32.9348 48.9003 29.7646 51.169 28.5757C51.8739 28.2015 52.7109 28.1795 53.3938 28.5978C54.1647 29.0601 54.8696 30.2049 53.7682 32.9348L52.755 74.4115H51.6977L50.9708 32.9348Z" fill="white"/>
<path d="M53.3274 74.984H51.1247L50.3758 33.089C50.0894 32.6047 49.2304 30.9975 49.6048 29.6326C49.781 28.9501 50.2216 28.3997 50.9044 28.0475C51.8075 27.5632 52.8868 27.5852 53.7018 28.0695C54.649 28.6419 55.5301 29.9848 54.3626 33.0229L53.3274 74.984ZM52.2921 28.8621C52.0058 28.8621 51.7194 28.9281 51.4331 29.0822C51.0586 29.2804 50.8163 29.5666 50.7282 29.9188C50.4859 30.8434 51.1687 32.1644 51.4551 32.6047L51.5432 32.7367V32.9129L52.2481 71.7478L53.1952 32.8028L53.2393 32.7147C53.7459 31.4158 54.1424 29.7207 53.1071 29.0822C52.8648 28.9281 52.5785 28.8621 52.2921 28.8621Z" fill="#F9AE1B"/>
<path d="M54.1201 57.3276V59.5952C54.1201 59.5952 56.7633 60.5419 54.9792 61.8408C54.6047 62.1049 54.1862 62.2811 53.7457 62.3911C53.1509 62.5452 52.0716 62.8535 51.1024 63.4259C49.8689 64.1524 49.12 65.5393 49.2962 66.9703C49.4064 67.7849 49.8249 68.1591 50.9262 68.5334C50.9483 68.5774 50.9262 66.2218 50.9262 66.2218C50.9262 66.2218 51.3668 64.9889 55.0012 64.1744C56.1025 63.9322 57.1158 63.3158 57.7546 62.3691C58.4154 61.4005 58.6797 60.0575 57.1158 58.6486C57.1378 58.6265 55.5078 57.3276 54.1201 57.3276Z" fill="white"/>
<path d="M50.5953 69.216L50.4852 69.0179C49.472 68.6436 48.8332 68.1593 48.679 67.0585C48.4808 65.4294 49.2958 63.8002 50.7716 62.9417C51.7407 62.3693 52.8201 62.039 53.569 61.8409C53.9875 61.7308 54.3179 61.5767 54.6042 61.3786C54.8906 61.1804 55.0007 61.0043 54.9787 60.9163C54.9346 60.6961 54.3619 60.3218 53.8994 60.1457L53.5029 60.0136V56.7554H54.0756C55.221 56.7554 56.895 57.636 57.4457 58.2304C58.9435 59.5953 59.2078 61.1804 58.1726 62.6995C57.4897 63.7122 56.3884 64.4387 55.0888 64.7469C52.4456 65.3633 51.6526 66.1559 51.4764 66.3981C51.4764 66.6182 51.4764 66.9925 51.4764 67.3887C51.4764 67.6749 51.4764 67.9611 51.4764 68.1813C51.4764 68.6216 51.4764 68.9958 51.0139 69.1059L50.5953 69.216ZM54.6923 59.1991C55.221 59.4412 56.036 59.9476 56.1461 60.7401C56.2122 61.1364 56.1021 61.7088 55.3091 62.3032C54.9126 62.5894 54.428 62.8096 53.8773 62.9637C53.2165 63.1398 52.2474 63.448 51.3883 63.9323C50.309 64.5708 49.7143 65.7156 49.8685 66.9044C49.9125 67.2346 49.9786 67.4548 50.3531 67.6749C50.3531 67.2566 50.3531 66.7283 50.3531 66.2439V66.1339L50.3971 66.0238C50.4852 65.7596 51.146 64.4607 54.8906 63.6021C55.9038 63.3599 56.7629 62.8096 57.2915 62.039C57.9964 61.0043 57.8422 60.0577 56.7629 59.067L56.5866 58.8909C56.2562 58.6487 55.5073 58.1643 54.7584 57.9662V59.1991H54.6923Z" fill="#F9AE1B"/>
<path d="M56.3002 71.6376C56.2782 71.6816 54.0755 69.5241 53.723 69.4801C53.723 69.5021 53.723 68.4014 53.723 68.4014C53.723 68.4014 56.3002 70.1406 56.3002 71.6376Z" fill="white"/>
<path d="M56.2566 72.2322C56.0583 72.2322 55.9041 72.1001 55.2874 71.5277C54.8689 71.1314 53.8997 70.2508 53.5913 70.0527C53.1508 69.9646 53.1508 69.5684 53.1508 68.9519V67.3008L54.0539 67.9172C54.3402 68.1153 56.8733 69.8986 56.8733 71.6378V71.7699L56.6751 72.1441L56.3887 72.1882C56.3447 72.2322 56.3006 72.2322 56.2566 72.2322Z" fill="#F9AE1B"/>
<path d="M54.5168 37.0957V39.6495C54.5168 39.6495 61.1469 40.2219 57.975 45.3074C57.975 45.2854 56.8296 46.8705 52.9309 47.3988C51.2569 47.641 49.6269 48.2134 48.1951 49.116C46.8074 49.9966 45.9924 51.1634 45.7722 52.7265C45.7722 52.7265 45.1334 56.9755 50.574 58.2524C50.6181 58.2524 50.574 55.8747 50.574 55.8747C50.574 55.8747 47.0497 53.4971 49.5828 51.4937C50.1115 51.0754 50.7282 50.8332 51.389 50.7452C52.7327 50.547 55.8384 49.9086 58.2834 48.5656C60.42 47.3988 61.7416 45.0872 61.4333 42.6876C61.3451 41.9391 61.1029 41.1245 60.6183 40.3099C60.6183 40.3099 59.8253 38.2845 54.5168 37.0957Z" fill="white"/>
<path d="M50.596 58.8467H50.53L50.4639 58.8247C44.5607 57.4597 45.2215 52.7045 45.2215 52.6604C45.4638 50.9652 46.3449 49.6443 47.9088 48.6536C49.3846 47.707 51.1027 47.0906 52.8868 46.8484C55.9706 46.4081 57.2261 45.3073 57.5565 44.9551C58.2834 43.7663 58.4817 42.7756 58.1072 42.0271C57.4684 40.7502 55.2878 40.3099 54.4948 40.2438L53.9662 40.1998V36.3691L54.671 36.5232C59.8253 37.668 60.9707 39.6274 61.1689 40.0457C61.6535 40.8602 61.9399 41.7188 62.05 42.6215C62.3584 45.2193 61.0147 47.751 58.5918 49.094C55.9045 50.569 52.4904 51.1854 51.5212 51.3395C50.9264 51.4276 50.3978 51.6477 49.9793 51.9779C49.4947 52.3522 49.2744 52.7485 49.2965 53.1668C49.3405 54.1134 50.5079 55.1041 50.9485 55.4123L51.1908 55.5884V55.8967C51.2348 58.4945 51.2348 58.4945 51.0146 58.6926L50.8383 58.8687L50.596 58.8467ZM57.4023 46.5402C56.5433 47.0906 55.1776 47.707 53.019 47.9932C51.411 48.2133 49.8471 48.7857 48.5035 49.6443C47.2259 50.4589 46.5431 51.4716 46.3449 52.8365C46.3228 52.9906 45.9043 56.2269 50.0013 57.5258C50.0013 57.1515 50.0013 56.6672 49.9793 56.2049C49.4066 55.7646 48.107 54.6198 48.063 53.2328C48.0409 52.4183 48.4154 51.6917 49.1863 51.0753C49.759 50.613 50.4859 50.3268 51.2569 50.1947C52.204 50.0406 55.442 49.4682 57.953 48.0812C59.9575 46.9805 61.0808 44.889 60.8165 42.7756C60.7284 42.0271 60.4641 41.3006 60.0676 40.6181L60.0235 40.53C60.0235 40.53 59.2526 38.9229 55.0455 37.8442V39.1651C56.0587 39.3412 58.2394 39.8916 59.0544 41.5207C59.6271 42.6655 59.4068 44.0525 58.4156 45.6376L57.3363 47.3547V46.5402H57.4023Z" fill="#F9AE1B"/>
<path d="M45.1771 42.8417C45.1771 43.1059 44.9788 43.304 44.7145 43.304C44.4502 43.304 44.2519 43.1059 44.2519 42.8417C44.2519 42.5775 44.4502 42.3794 44.7145 42.3794C44.9568 42.3794 45.1771 42.5995 45.1771 42.8417Z" fill="white"/>
<path d="M44.7145 43.8984C44.1418 43.8984 43.6572 43.4361 43.6572 42.8416C43.6572 42.2472 44.1198 41.7849 44.7145 41.7849C45.2872 41.7849 45.7718 42.2472 45.7718 42.8416C45.7718 43.4361 45.2872 43.8984 44.7145 43.8984ZM44.7145 42.7316C44.6484 42.7316 44.6044 42.7756 44.6044 42.8416C44.6044 42.9077 44.6484 42.9517 44.7145 42.9517C44.7806 42.9517 44.8246 42.9077 44.8246 42.8416C44.8246 42.7756 44.7806 42.7316 44.7145 42.7316Z" fill="#F9AE1B"/>
<path d="M50.2873 48.7638C50.2873 48.7638 47.7542 53.321 47.7983 53.5632C47.8423 53.8053 52.0054 62.7215 52.0054 62.7215C52.0054 62.7215 52.512 67.9391 52.512 67.785C52.512 67.6309 54.7367 61.2465 54.7367 60.4539C54.7367 59.6614 53.1067 52.7046 53.1067 52.7046L55.9922 41.1686L54.6486 39.8477L50.6617 41.1025L49.8027 41.6529L51.2124 42.9298L51.4107 45.7037L50.2873 48.7638Z" fill="#F9AE1B"/>
<path d="M50.3974 40.2438C50.3974 40.2438 45.6176 44.5367 43.1065 44.6468C42.9964 44.8229 42.8863 44.9991 42.7982 45.1752C42.688 45.3733 42.644 45.6155 42.5559 45.8356C42.5338 45.9017 42.5118 45.9897 42.4237 45.9897C42.3356 45.9677 42.3356 45.9017 42.3136 45.8136V45.7916C42.2475 45.3073 42.2475 45.3073 41.7409 45.3293C41.6748 45.3293 41.6307 45.3293 41.5647 45.3293C41.4986 45.3293 41.4325 45.3073 41.4105 45.2412C41.3884 45.1532 41.4545 45.1091 41.5206 45.0871C41.7188 45.0431 41.9171 44.9991 42.1153 44.933C42.4237 44.845 42.71 44.7129 42.9523 44.5147C43.0625 43.6121 43.9215 38.3945 50.3754 37.734C50.4855 37.712 50.3974 40.2438 50.3974 40.2438Z" fill="#332F81"/>
<path d="M50.9705 32.9348C50.9705 32.9348 48.9 29.7646 51.1688 28.5757C51.8736 28.2015 52.7106 28.1795 53.3935 28.5978C54.1644 29.0601 54.8693 30.2049 53.7679 32.9348L52.7547 74.4115H51.6974L50.9705 32.9348Z" fill="#332F81"/>
<path d="M54.12 57.3276V59.5952C54.12 59.5952 56.7632 60.5419 54.979 61.8408C54.6045 62.1049 54.186 62.2811 53.7455 62.3911C53.1508 62.5452 52.0715 62.8535 51.1023 63.4259C49.8688 64.1524 49.1199 65.5393 49.2961 66.9703C49.4062 67.7849 49.8247 68.1591 50.9261 68.5334C50.9481 68.5774 50.9261 66.2218 50.9261 66.2218C50.9261 66.2218 51.3666 64.9889 55.001 64.1744C56.1024 63.9322 57.1156 63.3158 57.7544 62.3691C58.4152 61.4005 58.6795 60.0575 57.1156 58.6486C57.1376 58.6265 55.5076 57.3276 54.12 57.3276Z" fill="#332F81"/>
<path d="M56.3006 71.6376C56.2786 71.6816 54.0759 69.5241 53.7235 69.4801C53.7235 69.5021 53.7235 68.4014 53.7235 68.4014C53.7235 68.4014 56.3006 70.1406 56.3006 71.6376Z" fill="#332F81"/>
<path d="M54.5164 37.0957V39.6495C54.5164 39.6495 61.1465 40.2219 57.9747 45.3074C57.9747 45.2854 56.8293 46.8705 52.9305 47.3988C51.2565 47.641 49.6265 48.2134 48.1947 49.116C46.807 49.9966 45.992 51.1634 45.7718 52.7265C45.7718 52.7265 45.133 56.9755 50.5736 58.2524C50.6177 58.2524 50.5736 55.8747 50.5736 55.8747C50.5736 55.8747 47.0493 53.4971 49.5824 51.4937C50.1111 51.0754 50.7278 50.8332 51.3886 50.7452C52.7323 50.547 55.838 49.9086 58.283 48.5656C60.4196 47.3988 61.7412 45.0872 61.4329 42.6876C61.3448 41.9391 61.1025 41.1245 60.6179 40.3099C60.6179 40.3099 59.8249 38.2845 54.5164 37.0957Z" fill="#332F81"/>
<path d="M45.1771 42.8417C45.1771 43.1059 44.9788 43.304 44.7145 43.304C44.4502 43.304 44.2519 43.1059 44.2519 42.8417C44.2519 42.5775 44.4502 42.3794 44.7145 42.3794C44.9568 42.3794 45.1771 42.5995 45.1771 42.8417Z" fill="#F1CE53"/>
<path d="M41.455 5.52579C41.6972 5.72393 41.8514 5.96609 41.9175 6.29632C42.0277 6.78066 41.9175 7.19895 41.6091 7.55119C41.2787 7.90343 40.7501 8.16762 40.0232 8.34374L37.0716 9.04823L35.75 3.58845L38.5474 2.92799C39.2523 2.75187 39.8029 2.75187 40.2435 2.92799C40.662 3.10411 40.9263 3.41233 41.0364 3.83061C41.1025 4.0948 41.0805 4.33697 41.0144 4.57913C40.9263 4.8213 40.7941 5.01944 40.5959 5.19556C40.9483 5.21758 41.2347 5.32765 41.455 5.52579ZM37.5562 4.33697L37.7985 5.3937L38.8558 5.12951C39.3844 4.99742 39.6047 4.75525 39.5166 4.40301C39.4285 4.05077 39.1201 3.94069 38.6135 4.07278L37.5562 4.33697ZM40.3096 6.49446C40.2214 6.1202 39.9131 6.01012 39.3624 6.14222L38.0628 6.45043L38.3271 7.55119L39.6488 7.26499C40.1774 7.1329 40.4197 6.86872 40.3096 6.49446Z" fill="#332F81"/>
<path d="M44.3405 7.24301C43.8338 7.04488 43.4374 6.73666 43.107 6.34039C42.7986 5.9221 42.6003 5.43776 42.5343 4.88738C42.4682 4.337 42.5563 3.83065 42.7766 3.34632C42.9968 2.884 43.3272 2.48772 43.7678 2.17951C44.2083 1.8713 44.7369 1.69517 45.3096 1.62913C45.9044 1.56308 46.455 1.62913 46.9396 1.82726C47.4463 2.0254 47.8427 2.33362 48.1731 2.72989C48.4815 3.14818 48.6798 3.63251 48.7458 4.1829C48.8119 4.73328 48.7238 5.23963 48.5035 5.72396C48.2833 6.18628 47.9529 6.58256 47.5123 6.89077C47.0718 7.19898 46.5431 7.3751 45.9705 7.44115C45.3757 7.5072 44.8251 7.44115 44.3405 7.24301ZM45.9484 1.21084L45.1995 0.682472L44.5828 1.36494L43.5695 1.47502L44.4726 0.154107L45.7722 0L46.9396 1.10076L45.9484 1.21084ZM46.5652 5.85605C46.7854 5.70195 46.9396 5.48179 47.0498 5.23963C47.1599 4.97544 47.1819 4.68925 47.1599 4.38103C47.1158 4.07282 47.0277 3.78662 46.8736 3.56647C46.7194 3.34632 46.5211 3.17019 46.2568 3.06012C46.0145 2.95004 45.7502 2.90601 45.4638 2.95004C45.1775 2.97206 44.9352 3.08213 44.7149 3.23624C44.4947 3.39035 44.3405 3.6105 44.2303 3.85267C44.1202 4.11685 44.0982 4.40305 44.1202 4.71126C44.1643 5.01947 44.2524 5.30567 44.4065 5.52583C44.5607 5.74598 44.759 5.9221 45.0233 6.03218C45.2656 6.14225 45.5299 6.18628 45.8163 6.14225C46.1026 6.09822 46.3449 6.01016 46.5652 5.85605ZM45.6841 8.9602C45.5519 8.87214 45.4638 8.71803 45.4638 8.54191C45.4418 8.36579 45.4859 8.18967 45.596 8.05758C45.7061 7.92549 45.8383 7.85944 46.0365 7.83742C46.2348 7.81541 46.3669 7.85944 46.4991 7.96952C46.6313 8.07959 46.7194 8.21168 46.7414 8.40982C46.7634 8.58594 46.7194 8.76206 46.6092 8.87214C46.4991 9.00423 46.3669 9.07028 46.1687 9.09229C45.9705 9.09229 45.8163 9.04826 45.6841 8.9602Z" fill="#332F81"/>
<path d="M55.5301 5.06343L55.442 7.08884L53.8561 7.02279L53.9442 4.97537L51.9618 1.29883L53.6358 1.38689L54.8693 3.67647L56.301 1.49697L57.8429 1.56301L55.5301 5.06343Z" fill="#332F81"/>
<path d="M62.5126 3.54453L60.8166 3.2143L61.0588 1.98145L66.0149 2.95012L65.7726 4.18297L64.0765 3.85274L63.2395 8.14571L61.6756 7.8375L62.5126 3.54453Z" fill="#332F81"/>
<path d="M70.2664 8.76207L69.9139 9.92888L65.5967 8.62998L67.2267 3.23625L71.4558 4.51313L71.1034 5.67994L68.3941 4.86538L68.1298 5.768L70.5307 6.4945L70.1783 7.6393L67.7773 6.91279L67.491 7.90348L70.2664 8.76207ZM70.1122 3.65454L69.6056 2.99408L68.8126 3.25826L67.8434 2.97207L69.143 2.33362L70.3985 2.70788L71.1254 3.94074L70.1122 3.65454ZM71.8083 2.26758L73.24 2.70788L71.7201 3.30229L70.7069 2.99408L71.8083 2.26758Z" fill="#332F81"/>
<path d="M0.286349 49.6885C0.110134 49.6885 0 49.5344 0 49.3803C1.36566 30.6894 12.7315 13.9798 29.6481 5.7681C29.7803 5.70205 29.9565 5.7681 30.0226 5.90019C30.0887 6.03228 30.0226 6.2084 29.8904 6.27445C13.15 14.3981 1.91634 30.9315 0.572698 49.4243C0.550671 49.5784 0.440537 49.6885 0.286349 49.6885Z" fill="#332F81"/>
<path d="M105.112 49.6886C104.958 49.6886 104.848 49.5785 104.826 49.4244C103.482 31.1298 92.4246 14.6624 75.9265 6.47269C75.7944 6.40664 75.7283 6.23052 75.7944 6.09843C75.8605 5.96634 76.0367 5.90029 76.1688 5.96634C84.2747 9.99513 91.2572 16.0713 96.3675 23.5565C101.588 31.2178 104.716 40.134 105.376 49.3804C105.42 49.5345 105.288 49.6886 105.112 49.6886Z" fill="#332F81"/>
<path d="M3.01809 49.6664C2.99606 49.6664 2.99606 49.6664 3.01809 49.6664C2.84188 49.6444 2.73174 49.5344 2.75377 49.3802C3.4366 40.5742 6.45428 32.0763 11.4764 24.8112C16.4104 17.7003 23.1066 11.9543 30.882 8.18973C31.0142 8.12368 31.1684 8.18973 31.2345 8.32182C31.3006 8.45391 31.2345 8.60802 31.1023 8.67406C15.287 16.3354 4.62605 31.9442 3.28241 49.4243C3.26039 49.5784 3.15025 49.6664 3.01809 49.6664Z" fill="#332F81"/>
<path d="M102.38 49.6664C102.248 49.6664 102.116 49.5563 102.116 49.4242C100.772 32.0762 90.2215 16.5335 74.5604 8.82812C74.4283 8.76207 74.3622 8.60796 74.4283 8.47587C74.4943 8.34378 74.6485 8.27774 74.7807 8.34378C82.4681 12.1304 89.1202 17.8764 93.9881 24.9433C98.9662 32.1863 101.962 40.6401 102.623 49.3802C102.667 49.5343 102.557 49.6664 102.38 49.6664C102.402 49.6664 102.402 49.6664 102.38 49.6664Z" fill="#332F81"/>
<path d="M5.61685 49.6665C5.46266 49.6445 5.35252 49.5344 5.35252 49.3803C6.03536 41.0586 8.92087 33.045 13.6787 26.1983C18.3484 19.4836 24.6921 14.0679 32.0491 10.5234C32.1812 10.4574 32.3354 10.5234 32.4015 10.6335C32.4676 10.7656 32.4015 10.9197 32.2914 10.9857C17.3351 18.2067 7.22481 32.9349 5.88117 49.4244C5.85914 49.5564 5.74901 49.6665 5.61685 49.6665Z" fill="#332F81"/>
<path d="M99.7816 49.6665C99.6495 49.6665 99.5393 49.5564 99.5173 49.4243C98.1736 33.0009 88.1074 18.2948 73.2393 11.0517C73.1071 10.9857 73.063 10.8316 73.1291 10.6995C73.1952 10.5674 73.3494 10.5234 73.4816 10.5894C80.7945 14.1559 87.1162 19.5716 91.7638 26.2643C96.4996 33.111 99.3851 41.1025 100.046 49.3803C100.046 49.5344 99.9358 49.6445 99.7816 49.6665Z" fill="#332F81"/>
</svg>
