<svg width="14" height="14" viewBox="0 0 14 14" fill="none" xmlns="http://www.w3.org/2000/svg">
<path d="M1.16666 3.79175C1.16666 2.55431 1.16666 1.93559 1.55108 1.55117C1.9355 1.16675 2.55422 1.16675 3.79166 1.16675C5.02909 1.16675 5.64781 1.16675 6.03223 1.55117C6.41666 1.93559 6.41666 2.55431 6.41666 3.79175C6.41666 5.02918 6.41666 5.6479 6.03223 6.03233C5.64781 6.41675 5.02909 6.41675 3.79166 6.41675C2.55422 6.41675 1.9355 6.41675 1.55108 6.03233C1.16666 5.6479 1.16666 5.02918 1.16666 3.79175Z" fill="#B6150D"/>
<path d="M7.58334 10.2083C7.58334 8.97081 7.58334 8.3521 7.96777 7.96767C8.35219 7.58325 8.97091 7.58325 10.2083 7.58325C11.4458 7.58325 12.0645 7.58325 12.4489 7.96767C12.8333 8.3521 12.8333 8.97081 12.8333 10.2083C12.8333 11.4457 12.8333 12.0644 12.4489 12.4488C12.0645 12.8333 11.4458 12.8333 10.2083 12.8333C8.97091 12.8333 8.35219 12.8333 7.96777 12.4488C7.58334 12.0644 7.58334 11.4457 7.58334 10.2083Z" fill="#B6150D"/>
<path d="M1.16666 10.2083C1.16666 8.97081 1.16666 8.3521 1.55108 7.96767C1.9355 7.58325 2.55422 7.58325 3.79166 7.58325C5.02909 7.58325 5.64781 7.58325 6.03223 7.96767C6.41666 8.3521 6.41666 8.97081 6.41666 10.2083C6.41666 11.4457 6.41666 12.0644 6.03223 12.4488C5.64781 12.8333 5.02909 12.8333 3.79166 12.8333C2.55422 12.8333 1.9355 12.8333 1.55108 12.4488C1.16666 12.0644 1.16666 11.4457 1.16666 10.2083Z" fill="#B6150D"/>
<path d="M7.58334 3.79175C7.58334 2.55431 7.58334 1.93559 7.96777 1.55117C8.35219 1.16675 8.97091 1.16675 10.2083 1.16675C11.4458 1.16675 12.0645 1.16675 12.4489 1.55117C12.8333 1.93559 12.8333 2.55431 12.8333 3.79175C12.8333 5.02918 12.8333 5.6479 12.4489 6.03233C12.0645 6.41675 11.4458 6.41675 10.2083 6.41675C8.97091 6.41675 8.35219 6.41675 7.96777 6.03233C7.58334 5.6479 7.58334 5.02918 7.58334 3.79175Z" fill="#B6150D"/>
</svg>
