<svg width="24" height="24" viewBox="0 0 24 24" fill="none" xmlns="http://www.w3.org/2000/svg">
<path d="M0 12C0 5.37258 5.37258 0 12 0C18.6274 0 24 5.37258 24 12C24 18.6274 18.6274 24 12 24C5.37258 24 0 18.6274 0 12Z" fill="#93CBF2"/>
<path d="M18.1325 9.03671C17.9853 8.4712 17.5515 8.02589 17.0008 7.87476C16.0027 7.6001 12 7.6001 12 7.6001C12 7.6001 7.99728 7.6001 6.9991 7.87476C6.44834 8.02589 6.01459 8.4712 5.86739 9.03671C5.59998 10.0616 5.59998 12.2001 5.59998 12.2001C5.59998 12.2001 5.59998 14.3385 5.86739 15.3635C6.01459 15.929 6.44834 16.3743 6.9991 16.5255C7.99728 16.8001 12 16.8001 12 16.8001C12 16.8001 16.0027 16.8001 17.0008 16.5255C17.5515 16.3743 17.9853 15.929 18.1325 15.3635C18.4 14.3385 18.4 12.2001 18.4 12.2001C18.4 12.2001 18.4 10.0616 18.1325 9.03671Z" fill="white"/>
<path d="M10.8 14.3999V10.3999L14 12.4L10.8 14.3999Z" fill="#93CBF2"/>
</svg>
